/* XPM */
static char *b33fd668aa98455ec8d809c3203ae6374QTixJHyKM1rOdrf[] = {
/* columns rows colors chars-per-pixel */
"64 64 164 2 ",
"   c #7AA0CF",
".  c #7BA6D3",
"X  c #7FAAD5",
"o  c #7CA6D8",
"O  c #7FAEDC",
"+  c #83A7CC",
"@  c #85A9CB",
"#  c #81A7D3",
"$  c #84ABD5",
"%  c #8BADD4",
"&  c #84ADDC",
"*  c #8AAEDB",
"=  c #91AED5",
"-  c #8CB1D6",
";  c #86B1DD",
":  c #8CB3DD",
">  c #8EB8DF",
",  c #94B4D7",
"<  c #92B5DC",
"1  c #98B6DA",
"2  c #95B9DD",
"3  c #99BADD",
"4  c #84AEE1",
"5  c #8AAEE2",
"6  c #85B2E3",
"7  c #8CB4E3",
"8  c #8EB9E4",
"9  c #86B4E9",
"0  c #8CB5E9",
"q  c #8EB9EB",
"w  c #92B6E3",
"e  c #94BAE4",
"r  c #9ABDE4",
"t  c #92B7E9",
"y  c #94BCEB",
"u  c #9ABEEB",
"i  c #8EBCF1",
"p  c #94BEF1",
"a  c #9ABEF1",
"s  c #A0BEE5",
"d  c #9DC0DC",
"f  c #A4C1DE",
"g  c #96C1E6",
"h  c #9CC1E6",
"j  c #96C1EC",
"k  c #9CC2EC",
"l  c #9EC9EB",
"z  c #95C2F2",
"x  c #9CC4F2",
"c  c #9EC9F3",
"v  c #95C4F8",
"b  c #9DC6F8",
"n  c #9DCAFA",
"m  c #A2C3E4",
"M  c #A8C5E7",
"N  c #A6C9E7",
"B  c #A2C5EC",
"V  c #A8C6EA",
"C  c #A5C9ED",
"Z  c #AACBED",
"A  c #B0CDED",
"S  c #AED1EF",
"D  c #B6D1EC",
"F  c #A1C6F2",
"G  c #A8C7F3",
"H  c #A5CAF6",
"J  c #A5CAF4",
"K  c #A1CCF7",
"L  c #A2CCF6",
"P  c #A5CCF7",
"I  c #A7CCF6",
"U  c #A4CEF4",
"Y  c #A4CAF4",
"T  c #A8CBF1",
"R  c #A9CBF5",
"E  c #ACC9F5",
"W  c #A9CCF4",
"Q  c #AACDF5",
"!  c #ACCFF5",
"~  c #ACCFF7",
"^  c #AECEF7",
"/  c #AACDF4",
"(  c #A1C6F9",
")  c #A2CDF8",
"_  c #A7CCF8",
"`  c #A5CEFA",
"'  c #A3CBFF",
"]  c #A5CAFE",
"[  c #A5CFFF",
"{  c #A4CCFA",
"}  c #AACCF9",
"|  c #AACFF9",
" . c #A9CFFC",
".. c #AACCFC",
"X. c #AACEFA",
"o. c #B1CFF3",
"O. c #A6D2F7",
"+. c #AAD0F7",
"@. c #AAD2F6",
"#. c #AED1F7",
"$. c #ACD1F5",
"%. c #A7D0FC",
"&. c #A7D0FE",
"*. c #A6D1FC",
"=. c #A9D0F9",
"-. c #A9D0FB",
";. c #AAD1FA",
":. c #ABD0FA",
">. c #ACD1FB",
",. c #AFD2FA",
"<. c #ABD0FC",
"1. c #ABD1FE",
"2. c #AAD3FF",
"3. c #AED0FD",
"4. c #AED3FD",
"5. c #AED5FC",
"6. c #AED5FF",
"7. c #ACD3FD",
"8. c #AED9FF",
"9. c #AEDAFF",
"0. c #B2D3F4",
"q. c #B8D7F5",
"w. c #BBDDF7",
"e. c #B5D2FA",
"r. c #B0D6FB",
"t. c #B2D4FA",
"y. c #B3D6FC",
"u. c #B2D5FF",
"i. c #B1D6FF",
"p. c #B5D6FF",
"a. c #B2D5FC",
"s. c #B9D6FA",
"d. c #B3D9FF",
"f. c #B0DBFF",
"g. c #B4DBFF",
"h. c #B7DAFF",
"j. c #B7DBFF",
"k. c #B6DCFF",
"l. c #B5DFFF",
"z. c #B6DFFF",
"x. c #B5DAFE",
"c. c #BADDFF",
"v. c #B9DEFF",
"b. c #BCDFFF",
"n. c #BDDFFF",
"m. c #BBDCFE",
"M. c #B6E0FF",
"N. c #B7E1FF",
"B. c #BFE5FF",
"V. c #BDE2FF",
"C. c #C1DEFF",
"Z. c #C0E0FF",
"A. c #C4E0FF",
"S. c #C0E5FF",
"D. c #C1E5FF",
"F. c #C3E6FF",
"G. c #C4E7FF",
"H. c #C2E4FF",
"J. c #C9E6FF",
"K. c #C4E9FF",
"L. c #CBECFF",
"P. c #D3EFFF",
"I. c #CFF3FF",
"U. c #D3F3FF",
/* pixels */
"q 5 0 0 8 e t z z 0 x p.s } ] q y 8 q q i *.x g.c j h d V A.E ..] 0 ; x 9.x 8 q g l d.1.x F e m < F H k t t y e x - % B D.C : r ",
"p 0 o t t w 7.j 9 i ;.u = u b [ t y q 8 4 y Y 6.y 8 > 2 1 e.B F b 7 8 c j q x j c U - : u P < k G G t e w ; C L k e h t.^ t.h k ",
"z y 6 w ;.M.8.P ; : O.- - < y 4.G.Q $ & & - F k ; $ ; 8 k u.k y t x x k 8 ; y j k +.r % w F Z m.T k k k k t j k c.B.m.c.e 5.B y ",
"n & Y ;.L L y L c e g.e y y x Y m.3 * u w l m.X.q 0 q q k ;.Y y p [ x : 6 ; 0 y 4.l e k 4.} $.D.B X._ - O.M.y ; w 4.Q T r B Q e ",
"y y H k 6 7 8 6 F P d.q 0 q x r B ^ e k D.g.B H z q 0 p F e.c 7 8 x k e w 7 w 7 h.5.+.X.s e - m.T e 4.k k { c y t Q B r < < Y t ",
"( ' e t t 6 4 & w H u 4 9 0 w u r Q x P g.B B } 0 0 & t w m.C h w Y j w : w t u d.;.5.l t u m m.Y r H ;.%.; ; k u k H r % w B F ",
"1.( } b 6 6 t 7 B G t q p t u u.u.x 8 y P k u G 0 q 5 * = m.Z $.F ` k e * 7 x H h.Q e.F u w h s.m.Y k y c 8 8 $ k Y ,.r : F _ 1.",
"R k u { b 7 B e.e.G a i 5 5 F p.P 8 z 6 8 k r a y 7 w * o.U.s.B u u Q u.w u H : - ^ F s u w < ^ F.< < ; 8 7 7 7 : 4.p.u X.` k t ",
"w.T < k u.B o.C.m.u.k ; : r u.Q d.e j v q t w w y Y 6.Q J.L.Z Z w w u h.6._ 6 . H +.k k u w G ^ m.l L k j 6 8 y w ;.X.h.X.: y X.",
"D q.C L B C.q.m $.Q d.k l m.h.r @.S 8 y t k a u X.8.g.3 Z m B L u H k e 4.( w Y 4.r e B u F u.p.H e L j y 7 O y _ k k 4.F u y u ",
"f L.e e 2 3 s m Q y F u.t.C B > m Z w F x 3.u.r y 8 l +.Z * ; t & k k 8 1.c p Y 8 l ` L x u t k Y u.e w g z n j u 7 X.F ( w w w ",
"A H.B # r < = r x u t H Y u k - 3 M e k w B e.u < ; @.h.r w t 0 7 q k g p y x 0 7 t ` 4.b 7 w r ;.k 6 6 g c c x 7 8 H : 6.Y y k ",
"T G V.} T u F F 0 0 y w x ..a * = V B F B r B T < y B.l - w y 0 q t y 8 8 q p & ; > 8 Y z q k e u $ 7 6 0 6 y g k Y t % L 4.y ` ",
"k : Y G Y L ] 6 0 5 7 x F p 0 q R $.4.4.t.h , 2 j 8.e w B < b y 7 p > 7 z z 9 6 X y 6 6 q 5 t t w $ 7 6 ; O n x { c w : e e y Y ",
"j k m.m C 8.z 9 p y y ` q & q z [ a y O.T Z N Z Y Y k k m.m.u k x x 6 y x y 0 & 8 ; ; y 9 0 b b X.& w 7 0 0 n 7.z ; e - h L ` k ",
"6 j Z M B.K z z y y L k X 8 z y x Y ; j $.$.N t.k ; 7 u m.B T O.x 6 t ;.n c [ 6 8 8 y j ] ..p 0 ` 1.u F c x 2.k 7 > w : y 6.c 7 ",
"q 8 8 L k y c g ; ; k L k L y k 4...B Y Z S S g ; q 0 0 8 j T C j d.r.C w : 1.{ k E E s.m.r & 7 ] u u u I.d.k : w 8 c O.e x y 8 ",
"6 6 p v c z n c y 8 k j k t t _ } Q 3 - % 2 5.; 0 9 9 9 7 y h.r U ;.3 < - r L u < t.P.m % w 8 z p t % r t.@.h e e j k ;.l j 7 5 ",
"0 y b 0 t z j 0 j p p q j 4 4 p Y 4.F r < g.5.g c 9 9 0 ; w V.3 e u 7 w F k e : < Z 0.E r u b i 6 0 t e C l < w O.x > k G a a a ",
"9 q 7 0 q q 0 v 0 i q z q 6 9 0 7 w u w L 6.g 8 q x & $ B $.C.m Y b j 7 k ` M.D.V.c.m p.B u y 0 ; 8 l 9.B.j : 8 1.7 $ 0 ( s a u ",
"y c t 8 7 ; 8 8 ; q q z O 6 9 6 6 8 u x ;.y k %.c j 7 L e.o.J.o.e b 6.8.0 ; y g.Q t.e T P k k 8 j 8.....k P y 8 7.6 9 y n n b j ",
"t c j > 7 ; y 6 9 g c v i O q 6 7 j 1.` t t k 1.Y : h ^ r = C.m.- & z 2.b q t F B u * e O.> k : c x w 7 7 y k 6.N.z j z 0 x j g ",
"O.j j j 8 $ e j c k k c *.8 y l j k u.0 5 0 y y u 6.T r < , e.J.; g x 9 0 y H u e.2 w 7 j e C h.c q q 4 7 * w x j ; & 7 > h N C ",
"c k l j ; L l.l.;.j $ j %.c j h.B.6.w 5 t 7 t y d.t.h T , % w } j c j 8 5 0 u G F B * k L 6.V.m c j 6 9 5 5 t e.k > : - U N N.V.",
"{ b k y e _ ( w 7 w w F e % % p.h.l t r 7 5 t w B D.r T +.- t u x x 0 0 0 : 3 $.A r Z 6.L w C./ l O.y w u X.p.T @.h u } ..r m m.",
"j j t [ ..x w u < w E ^ ^ B ^ p.T u.e k a * * 7 w H.m e Q ;.u w w x z 8 8 < 3 0.C.0.U e w < m./ 2 N u.r E H.B T B B p.k r r r s.",
"e L h.h.H B r F e.w w s C.A.C.0.r t.Y u u t w R Q V.k C L g.%.q t e t : * e m m./ ^ B e k r m.0.h N E J.J.V M s.m B e.k w k T N.",
",.e k B k h.R r 0.o.s % 1 Z m 3 3 T T u u 7 H L e D.u.k 7 8 q j t w k w % u e.H.V...` e < , ^ J.h h , 1 m.m.e.o.B B Q F : - h s.",
"D.2 @ - 1 T m.m.V r 2 d 3 t.$.h u < Q t g O.k u r p.F.$ % 6 7 7 8 j Q T 0.c.H t ( 8 _ k < 3 T U.h   : - m A.J.s.m % 3 3 3 N f w.",
"q.0.1 1 3 M c.m.V.u.r.g.r.@.$.N.u u u 8 j 6.L k T Y m.,.e w 7 7 c 7.d.h.A.m.w x q O 4.4.P T B Q g.x * 3 B M m.A.e.s.H.L.L.L.0.M ",
"m D.L.m.B B t.u.Y X.P w y 8 e %.k p x ; 8 O.8 l < w r A.F.g.j O.*.j - < C Z : H 0 ; Y k e k w w u.G.L.q.f q.s.o.T p.Z U C u u w ",
"V 3 B T u k w t w w y 0 7 0 y c p x x q j c g j u w G r < k g g 9 6 8 < 3 Z e 7 7 j 7.x w * 5 w l @.N 3 m 0.V B t.h > y 1.a w 7 ",
"h l { y t z 7 y j j 7 9 9 6 u x a 7 c j j z x b x c j 2 : - u F v b 8 w - h h k Z l U t ; 0 4 6 r Y : ; g x y ;.X.e 7 6 8 7 8 e ",
"0.d x 0 4 9 & t n g O 6 0 q Y h.p x k e : 8 %.y 4 { O.2 < < R ..y [ H w e P Q d.V.C B e $ 7 8 : C Q c 6 ; 7 j ` k 6.y 7 7 j e B ",
"m B j & & 6 : y 7.c 6 6 0 q k ..w ..d.< $ +.( $ 7 w ;.5.B.M.u w w e.X.T T G r 3 F.M s t.r < B c.Q G L j ` 8.$.w % Y 6.z { +.c.G.",
"u ,.c g 7 j h.$.Q Y p q y j B ,.H X.l h - U k * w e h V.U.U a u w t./ m.m w s w C.m r B m.Y p.H.B T k > U P r < < ` 6 7 y g.1 A.",
"G < ( d.l @.B.m Q F t 7 0 y C g.k - e $.l h.6.u a } B ^ t.< w u B m.0.0.B u u w G c.B B Z L.m.f M 0.B w w 7 % r Y r r : C ;.3 p.",
"H F L P B.G.C C t.u w 5 $ : r 5.t.k h + - B e u w < ^ T s.R s s B t.s.h G w 5 s D.X.r 2 < < q.F.w.A 3 e u F r e m $.L.5.c.B , e.",
"X.y e : h h.p.0.e.u w w 7 u k k O.l.: < C e k X.r u R t.p.s G k h B k % u.( p ..c g t : * * E s.A.s.^ B r E t.B - e e.u.^ s B Z ",
"8 8 ; % $ B L.D.e.r w w t c x 0 x 7.g @.e k Q Q Q u s u E r T r x 4.l ; %.( ] b > j w 7 w u k ^ r o.D.T < e ^ U w w w R X.B Z r ",
"8 0 8 8 y B k t.D.,.Q d.k b z z x 8 x y 4 u H 4.L - w % u.u.r e t y 7 w 7.7 y 8 O.> 8 > 5 a G } r p.E t.3 e r y F w : y u.k B m ",
"q 7 g j P x * k C l C k y ; z i q q v 7 & 4 u ( U P % k G.e w < w & * u 8.t y ;.8.O.C j 5 t F u G t.B m.u.G.X.k k t Y u.c.R k e ",
"8 8 6 j a 5 7 F k w - C k j i 9 i z 0 6 4 8 & - 8 j y 8.y k d.c w 5 e e B e : Z C M.g.,.a a a u X.B 2 3.F c.y 6 x 9.O.e h L a t ",
"n j 9.K $ w 8 7 j k C h < k 0 9 n z q O 6 6 7 ; l j Y ( y x O.k a x H B C E r V S s.3 B E G 3.w k r = w R x 6 z z 2.l - - e t b ",
"v 7.1.D.e.w . 0 y 8 U r r ; 9 c *.y ' y 7 6 : < k d.x 4 q ( 6.b x p g l ;.Q s r 3 f T E * * u x x w * 3 / B c z 9 6 ( y % F x ` ",
"z 8 j 5.;.B.n 6 0 b ;.r e w c *.j 8 [ [ p ( L l 5.k : y 4 7 y c p 0 6 l 1.H a < % @.c.k 7 a * t ..k 2 r B G j 6 4 p w k e H 8.y ",
"6 8 < h 2 h O.%.8.1.u r B G g j : > O.y y k G.B.k * t 5 p t 6 0 0 O O q z x x w e D.k w p x z 8 x e.s B h.4.6 q q 6 e C $.^ ; 8 ",
"q 0 8 < g - y x x p 4.B t.Y : $ g l e : : e g.O.u u t t 4 7 0 z z O 9 6 7 8 a p 1.k t j 0 a 6 8 t 2 T e.s.+.t y 7 7 e h.s.e t 8 ",
"0 7 & 8 t k c t 7 c x e w ;.U & t O.;.c.t.c.L ,.O.e B u $ 5 y z v 8 ; ; 7 t ..( x x j M.g.Y # * w e B / t.c.B < - - Y Z t.h y k ",
"g 6 0 j Y N.1.: $ ;.y - : k O.8.k : h m.t.h.B x 1.y u w w X.%.[ q 7 y e % B 4.( t 8 8 8.Y V...< : r h.T c.u.h.r e P H.T C Q l j ",
"c 8.c e F L ` h : u.u : k r k X.X.- - B T F 7 8 b k k r r ^ ` O.q b x O.,.,.a 7 0 7 g > w h u.X.d.e.k t _ t B h.,.X.4.e a 1.u k ",
"< w V.+.x : : t ( Q F t k ;.B k w u B r B F : 0 x y e X.Z r e L z 7 - V.c.B t w 0 y & > e > < u k ( * u G F 7 L G x a 7 y G e t ",
"C h Q U u.w & k y k F w e ,.Q k 6 7 x B ^ B w < j 6.m.s.r C g 8 y w e d.^ B y x t 7 X y : e c F 4.u u a y t t j t ..b 5 5 b a F ",
"T h - t.5.e O.k u 1.4.x u G X.k 8 9 0 G p.w r X.e.m $.s.N +.6 j l 6.N.+.Y p.u u ( $ $ y U 9.g.x ^ Y O.k w 4 & q b ` t 7 y G ..u.",
"s.$.C r r t 7 7 z ` %.u w < w : 9 i 4 u A.m.t.r e , o.C.< k g *.4.G u.T r R x k w 8 c M.O.1.t : - ,.B < 7 k 8 z c 0 ; k X.} B G ",
"/ Z m.3 h c Y ; 0 8 6.( u u w w 0 0 y 4.o.B t.3 r m B C.e U n y e Z k 2 2 k Y w j e @.y ; > y 7 d.c.j g g j v *.O 6 j e r r < w ",
"$.t.B e L y [ j 6 y 6 y k y u t 6 7 C B.$.e k k w u B U.Z r w ; r ^ B w < w F w P d.e e : ; 8 z 6.e h g > ; q n y n c e 5.$.B B ",
", - d.6.> X 6 8 6 4 6 x y ..h.k l O.g.h h < y c z y < m.h.% w Q / $.V < w B } H.d.h Y w : ; 8 %.k k n x g q j v n j 8 b O.L u r ",
"< k G.e y j y 7 q q q *.%.k x g.M.B.5.N 3 @ : y 1.7 u ^ m.< P F m H.C u } 1.B k L.r T R : 8 [ y t k x p z z p q z 0 6 z ( 4.Y t ",
"< g.x g 8 j L ; k x y z j t 7 y > g h c.t.B H 1.4.k r e ,.G.O.w m s.X.m.u < k e V.h 2 X.4.( y 7 7 8 0 i i i y z q 0 $ 0 t a u k ",
"1.{ 7 x j g ; ; 8 x Y k 7 w 7 7 7 > h - B Z L 1._ k p.r h k c j m s.E } F k w B D.C C R g.1.7 q 0 0 0 p 0 5 i y 7 & 7 7 0 5 t k ",
"c 8 c 1.K.d.h $ * : e L e w : e 8 - < r r e : j 4.7 r t.e < j e m H.e.} a t 3 < G.0.h 2 w k g 7 q 6 0 0 4 0 z j 8 $ 0 8 * w 1.Y ",
": 7 7 Y k P D.B r r ,.u.e e k B G r w m.B * 0 [ z ; : B r.N h Z 0.P.r u _ ; < h s.G.% % u u y { 9 O 0 q y c x k 4.7 > g > e O.[ ",
"8 7 7 : t r h T t.c.T B ^ ^ y F Z e.C.s.X.e O *.9 6 : r m I.S f 3 0.e.} x k @.@.N H.E < Q b j j q i *.8.6.Y : : ;.X.C @.@.l.c ; "
};
