/* XPM */
static char *_a3e1307462d48b0d81eaff06c36b8e1EYSUzq0HvKj1JeCB[] = {
/* columns rows colors chars-per-pixel */
"64 64 137 2 ",
"   c #444542",
".  c #464845",
"X  c #4D4E49",
"o  c #4F504B",
"O  c #51524D",
"+  c #565653",
"@  c #575954",
"#  c #595B56",
"$  c #5C5D59",
"%  c #5F605B",
"&  c #62645F",
"*  c #656662",
"=  c #676964",
"-  c #6A6B66",
";  c #6C6D69",
":  c #6E706C",
">  c #72736E",
",  c #747672",
"<  c #767874",
"1  c #797B76",
"2  c #7C7E7A",
"3  c #7F807B",
"4  c #81837E",
"5  c #848682",
"6  c #878883",
"7  c #898B86",
"8  c #8D8E8A",
"9  c #8F908B",
"0  c #91938E",
"q  c #959792",
"w  c #949693",
"e  c #969792",
"r  c #959691",
"t  c #959794",
"y  c #969694",
"u  c #979795",
"i  c gray59",
"p  c #979797",
"a  c #949692",
"s  c #989793",
"d  c #959891",
"f  c #979892",
"g  c #969893",
"h  c #979893",
"j  c #979994",
"k  c #969895",
"l  c #979996",
"z  c #979994",
"x  c #989993",
"c  c #989994",
"v  c #999A94",
"b  c #989A95",
"n  c #999A95",
"m  c #989896",
"M  c #999997",
"N  c #999B96",
"B  c #989A97",
"V  c #9A9B96",
"C  c #9C9B97",
"Z  c #9B9C96",
"A  c #9A9C97",
"S  c #9B9C97",
"D  c #9C9D97",
"F  c #999B96",
"G  c gray60",
"H  c #9A9A98",
"J  c #9B9B99",
"K  c #9A9A9A",
"L  c #9B9B9B",
"P  c #9B9D98",
"I  c #9A9C99",
"U  c #9B9D9A",
"Y  c #9C9D98",
"T  c #9D9E98",
"R  c #9C9E99",
"E  c #9D9E99",
"W  c #9C9C9A",
"Q  c #9D9F9A",
"!  c #9C9E9B",
"~  c #9E9F9A",
"^  c gray61",
"/  c #9D9D9D",
"(  c #9D9F9C",
")  c #9E9E9C",
"_  c #9F9F9D",
"`  c #9C9E9A",
"'  c #A09F9B",
"]  c #9FA09A",
"[  c #9EA09B",
"{  c #9FA09B",
"}  c #9FA19C",
"|  c #9EA09D",
" . c #9FA19E",
".. c #9FA09C",
"X. c #A0A19B",
"o. c #A0A19C",
"O. c #A2A19D",
"+. c #A0A29D",
"@. c #A1A29D",
"#. c #A0A09E",
"$. c #A1A19F",
"%. c #A1A39E",
"&. c #A0A29F",
"*. c #A2A39E",
"=. c #A3A49F",
"-. c #A1A29E",
";. c #A1A3A0",
":. c #A3A3A1",
">. c gray64",
",. c #A3A5A0",
"<. c #A4A5A0",
"1. c #A4A6A1",
"2. c #A5A6A1",
"3. c #A4A4A2",
"4. c #A5A5A3",
"5. c #A5A7A2",
"6. c #A4A6A3",
"7. c #A6A7A2",
"8. c #A4A5A2",
"9. c #A6A8A3",
"0. c #A7A8A3",
"q. c #A7A9A4",
"w. c #A7A8A3",
"e. c #A8A9A4",
"r. c #A9A9A7",
"t. c #A9ABA6",
"y. c #A9AAA6",
"u. c #ABABA9",
"i. c #ACADA8",
"p. c #ADAEA9",
"a. c #ADAFAA",
"s. c #ACACA9",
"d. c #AFB1AC",
"f. c #B1B2AD",
"g. c #B0B2AD",
"h. c #B3B4B1",
"j. c #B6B8B3",
/* pixels */
"[ A +.,.R g b 0 ' 0 b e b R *.*.7 5 8 8 8 i 0 0 s 8 5 8 O.4 4 4 4 4 4 4 4 e.X.4 7 K 5 7 K p ' C 8 0 4 0 8 6 0 0 v d g *.A 0 9 j ",
"g b P b b R b 8 D q O.' x e C D 2 4 i i i i 8 8 8 s 8 8 4 D O.4 4 4 4 4 4 4 0.4 8 8 5 i >./ s G 0 0 9 9 0 0 d d x 9 0 [ A 9 9 g ",
",.P b P C b s b e q e D 0 q R O.5 5 G 8 8 8 0 s 8 9 8 7 4 O.4 4 4 4 4 4 4 4 4 e.8 7 5 5 G p i G s 9 9 9 d 0 A A x g A g [ g A A ",
"9 P +.+.+.R b q +.O.x +.R R O.b 2 1 0 7 i 8 8 s 0 8 8 s 4 D Z v 4 4 4 4 s C T 4 i K 5 8 G i ' ' 0 8 8 9 0 d g A x g v g b g A [ ",
"q } +.R g q q q 0 0 0 O.+.*.O.b 6 < 8 8 9 f 9 f 4 s 4 4 4 C 4 ] s 4 4 4 C 4 s s p p 5 i 4./ ' s 9 0 r r r f 0 g b g g } A 0 0 [ ",
"R P } 1.+.j 0 0 A O.R =.=.*.' D s 2 9 0 9 Z 9 4 4 0 s 4 s X.Z Z 4 s 4 4 4 O.s C 8 8 8 0 / ' s a 9 ' x 0 7 0 0 0 9 j A } A [ b g ",
"g j b g j +.+.x x b [ D O.O.O.*.4 ; 9 9 s Z f 4 0 s 4 s s 4 O.O.T 4 0 0 s 4 4 s 0 0 0 a s C G ' 0 v 0 0 8 0 x x 9 d A b b  .A 0 ",
"A q A +.R [ [ x D A *.A +.+.D R 0 - 0 9 9 f v 4 0 4 4 s s 4 T 4 C 4 4 0 s s 0 0 p w 5 s _ i ' G s 0 7 s O.0 X.v  .b A } =.b b b ",
"g 9 A A D +.q [ D +.1.C D =.R D r > 0 s 7 0 X.9 4 9 ' s s 0 7 ' s s C x x r x r r x 8 v $.p ^ G w w 8 w d j j P } [ =.j [ [ d 9 ",
"[ A A A R *.=.D O.O.D D O.D A e.' 4 0 7 ' ' s s 4 ' 8 9 ' 8 9 9 x 4 4 0 0 O.4 r X.x = 9 >.>.>.>.| &.B / P } 5.6.9. .9.t.i.t.5.5.",
"[ 9.9.9.9.A i.D g =.e.i.f.e.R +.0 & f f ' s ' ' O.1 ' 8 2 ' 9 5 f ' D 4 r 4 4 0 9 ;   4 G 8 8 8 9 9 8 0 8 0 I I 0 9 9 [ [ j d g ",
", & & , , o # O & - @ O & > ; # X   > : * & & # & O ; * * : % + + # O O X & 4 4 5 ' ' - 2 ; 5 8 6 1 : < 2 2 2 ; : , - - - < 4 5 ",
"9 9 g 8 6 , 7 2 2 q 0 6 8 0 q 8 4 f D f f f 4 4 4 Z 4 f s 7 5 9 4 3 7 7 4 y.O.r C ' 7.7.' 4./ / ( k B ( p 0 w 9 q +.D D g D A 0 ",
"[ 9 d g [ 9 +.[ C b 0 b O.D x ' 0.f 4 ] 4 4 D f 4 4 Z ' 9 8 5 3 8 s ' 0 s s 0 s 0 ' b C u.R K G &.t w ( 6.&.&.0 q b x b A [ O.D ",
"b b A g g 6 D O.O.e b O.D x x R ] ' ] D f 4 f 4 f f f s i y 8 6 r s 0 ' s ' s 8 ' C ' *.' ' >.G / ( U U &.U U a j u A D [ D x g ",
"[ [ g g A 6 O.=.' 0 D b x O.R D O.f x 4 v f f Z 4 4 f 9 8 y 8 p s 7 s s s ' r X.=.r *.+.4.4.i G | &.&.B &.U } u R b [ g A O.D A ",
"*.*.R [ R 8 g R [ A  .j A *.] +.b R +.x 0 x 0 8 0 4 s 9 0 r 8 K s 0 0 G / C ' ;./ G 4.4.>.r.#.p ( / ;./ } d.} a } [ [ A D O.C O.",
"*.[ x b x 6 q +.[ [ =.[ [ [ A O.+.b C s C ' 0 6 7 8 9 0 6 s 8 p 8 i i s G G #.' / #.' 4.#.G #.' ;.6.| ;.&.} P a P [ *.D x g 0 D ",
"A D R +.+.9 0 ,. .A 5.} +.D A [ ' C C R D Z f 0 7 9 5 7 0 ' 9 8 ^ G i G G a G / ' r.' ' 4.4.r.>.6.u./ ;.P P P j } [ +.R R C b C ",
"x [ D A A 9 0 q.[ A *.[ +.D A A R R 1.1.O.Z Z X.0 0 8 4 8 r y s / a 0 / #.C ' ;.s / >.G 4.s.4.#.6.6.q.| d } j P  . .[ [ +.D C s ",
"q D A g b 0 9 9.} [ *.[ O.O.D g x v [ +.O.] D x 6 9 9 8 i 0 5 a s s 0 i G ' 4.' G G ;.4.u.r.' r.6.6.r.U a | j P A ' +.*.*.R ' *.",
"0 A D g R j 6 *.,.,.*.*.[ =.R x x A D [ D [ O.0 M 0 5 5 7 8 4 ' G G s i a i / / _ 4.#.u.s.4.r.4.6.r.U &.j j P j 1.7.+.+.' x e e ",
"R D g 9 j a 4 q.e.i.+.=.[ +.[ [ [ =.*.=.O.O.=.] 0 0 y 8 8 7 < >.G s i i i a / 4.#.;./ 4.4.4.u.#.6.u.U 6.} P P j g g 0 b ' ' ' ' ",
"*.D g A  .A 4 q.e.i.[ e.R *.O.9.*.=.O.*.[ D +.D ' y M 8 p i , e ' >.G 0 0 s / s 4.s ' r.4.4.4.s.6.4.4.;.U q.j j [ +.D O.' C ' ' ",
"O.0 b D 9 7 2 j.j.d.j.d.e.e.=.*.x O.O.] ' +.' O.O.R x b 0 q 4 X.g.u./ #.K i K #.' / #.h.r.#.4.4.p 6./ k 9 9 2 d +.e.+.O.D A +.*.",
"0 8 8 6 7 5 1 0 9 7 7 7 7 0 0 x D 0 g g 0 0 q 6 4 6 , 6 6 2 1 6 2 2 4 5 8 8 8 7 0 7 1 , 5 ^ ' i w 9 w 0 3 , * # 6 7 6 7 0 g C 0 ",
"e x 0 7 b 9 g j d d [  .*.*.D A X.Z [ O.s b _ C G C 6 6 0 q 6 4 5 6 0 5 5 8 8 p i H s a #.>.G G U U b 0 d [ 9. .+.A 0 0 e C s 0 ",
"C x r 0 *.g *.q.t.d.d.d.i.i.*.[ =.=.=.+.+.R _ 7.' >.0 8 ' d.1.C >.4.u.r.r.u.r.r.h.r.r.+.r.>.' 4.&.4.b  .*.[ *.t.d.i.+.O.*.' ' ' ",
"x q D g [ A A 9.t.5.t.5. .*.*.*.=.=.T T X.X.R +.#.u.8 i ' 0 +.R ' R x ' >.r.s.u.i.O.+.x +.e.e.;._ r.p p 9 b q.5.[ *.O.O.' D b C ",
"O.' *.0 g +.P 9.5.,.t.t.t.i.9.*.=.=.X.=.X.=.e.O./ 4.9 8 ' i ' +.q b C 7.r.' 4.' e.=.1.R R e.f.e. .h.&.a b [ ,.[ *.*.*.R R ' s C ",
"O.R O.6 9 D [ ,.t.5.q.5.*.9.i.i.=.=.i.i.X.=.t.O.' #.a 2 / ' C C *.D e C 4.*.' 4.=.+.C +.+.+.,.} u.r.w w  .d d t.9.*.+.' R O.' ' ",
"O.[ *.8 0 A *.9.t.q.t.q.9.d.i.i.=.i.=.=.=.=.=.X.#.r.8 4 4.s +.1.D b *.*.*.*.' ' ' 1.C ' +.+.6.t.r.r.P &.7 g [ [ *.*.e.+.O.' e ' ",
"d b [ 5 8 [ 5.[ e.1.e.=.1.d.i.e.O.O.e.=.' 7.' =.^ u.8 4 6.H L 4.1.s / _ 4.4.i C _ #./ #.;.r.s.4.r.g.q 0 B ( / 6.6.&.6.;.| B 0 0 ",
"z d d 8 9 [ [  .9.O.=.e.e.e.=.i.e.9.+.R ' X.X.' ^ >.9 2 / u H ' / a s / 4.r.#.;.r.C i ' 4.#.4.#.+.6.a b ( t ( r.;.B ( ( | [ k B ",
"I d j 7 9 g [ 5.=.[ +.*.*.=.e.e.*.=.O.D ' 0 ' r ^ ^ 7 2 H s +.' ' C / #.4.r.6.#.4.G i ' 4.#.4.' +.9.0 a w 0 B | 6.B B B }  .[ 9 ",
"6 7 9 3 5 j [ A D R O.O.*.=.=.+.D O.O.O.O.x ' ' G p 6 1 H u C *.s G s / ' #.r.#./ ' / >.;.4.4.4.g _ 6 a B U ;.U B B ( ( [ | d 9 ",
"5 7 9 3 6 [ ,.*.1.R A } O.A R +.9.+.D D ' v s s r ' 8 3 ' C C e.p p K ^ _ ' 6.4.#.#.4.4.6.&./ >.*.} 6 a a 9 k G 9 w d B [  .[ 7 ",
"5 3 7 3 6 9 g b j g a g b j R b d x 0 0 4 9 4 9 5 0 2 < q *.q q 0 i i i i i s / / / #.^ L / i i 0 P 9 9 9 0 w G w w 0 w w d d 5 ",
"< 1 3 3 4 4 3 4 g [ [ A 8 6 4 > > 1 < 1 < > 2 2 1 1 ; , 6 b 6 6 5 2 2 2 5 5 4 8 4 7 7 2 4 7 5 3 1 9 9 6 7 8 2 < 2 5 4 4 3 , 3 , ",
"7 6 7 5 6 9 0 g 9 g q g 0 9 b b 8 x 7 4 4 3 9 4 8 4 4 r 0 C 0 e p 8 5 5 8 8 2 0 i p p 9 a i 9 k 9 j q 0 k / 8 w 9 6 4 8 9 7 8 6 ",
"[ k 9 0 9 d b P +.R b b b b [ q 4 v f x f T T f ' b q b C C +.D K i i ' w / 3 9 / p K L t t | k [ d B w ( | w | k w t U t 0 t B ",
"k b d j b [ [  .+.+.R R b R +.g 4 v f f 4 Z T T b b e R R ' +.D K i G G / >.4 8 K K / L B l U k [ [ | d &.| w I U G ( ;.w 7 w | ",
"d j d j P d [ A +.R R R b b +.q 0 f 4 9 0 D T T q C b C +.=.=.O.4._ ' G p >.4 8 0 k L ( | |  . .[ [ | [ &.| w B ( k G  .d 7 w [ ",
"[ b b A [ d A [ +.R R } q b } a 4 x f f f f f D s R b b *.1.=.*.4.r.' >.w >.2 8 t U U U | | l ( d [ [ | &.I B B U w t U w 9 w [ ",
"e 0 0 0 j 0 P R 1.R P +.D b D 0 6 e 0 x D x f x u _ H / >.;.;.#.H ;.U U w &.< 8 0 / U l | l l | [ [ d [ &.| B B k B B [ w 9 [ [ ",
"' C e x P P *.*.1.+.P +.R b x 0 7 e 0 x X.' x f s / H #.#.#.#.' _ _ U w k U 1 7 8 (  .w B ( | G | [ d [ | B t w w B B B 9 w [ w ",
"O.R q b A P P A R +.R R R x 0 8 6 0 r ' e 0 v ' G u u / C C R ' &.U P 8 w w < 8 0 (  .t B U | l [ [ [ [ | w B w w w 0 w 9 0 d d ",
"[ O.g R P } [ j b 1.+.b b q 0 7 6 8 8 e 0 0 e 0 s i 0 s i i R ' u j p 0 0 0 < 0 G G l | U G l  .d d [ [ B w B B w 0 w d 7 6 w [ ",
"b *.g R *.} j P t.[ b j d b 9 6 3 d 0 x g a 0 b P g b b v D 0 C } d 9 3 3 3 3 d d d d P } d d } [ B [ w d d d w B w 0 0 5 5 d [ ",
"b [ g 0 9 9 6 5 9 5 5 6 9 9 9 3 1 9 0 0 9 0 d 0 b j d a 0 8 6 0 7 3 3 3 3 3 3 3 d d d d P 9 9 d 0 9 7 7 7 6 6 7 9 7 7 7 4 5 0 w ",
"9 9 a 9 8 9 9 7 6 4 3 5 7 8 7 3 6 6 3 3 6 0 7 , 1 3 5 7 4 < > > 3 3 3 3 3 3 3 3 3 3 3 9 3 3 3 3 5 3 3 3 3 4 5 6 5 3 7 5 5 6 7 5 ",
"9 , a g x A [ [ [ [ } [ b z d z 9 0 d d 6 4 9 9 9 9 9 7 6 4 0 g 9 9 9 9 9 9 d d 9 d 9 9 3 3 3 3 9 7 9 w w d [ [ [ w [ [ d [ 0 9 ",
"b 1 x A A A [ A j j A A d 0 0 b | k k [ d d [ d 7 0 9 d k w g d P d d d A A R d d d d A d 3 3 9 w d d d d [ B d [ w d w w 0 7 9 ",
"[ 3 0 0 0 g A q P A g g z 0 9 w 0 0 w 9 0 d [ 9 7 7 6 7 9 d g A d 7 9 d 3 d d d 9 d d Q 3 3 d d w d d w w d B w w 9 9 0 9 7 6 9 ",
"A 4 9 0 g x D D 9.[ A b P 0 9 9 9 0 d 0 0 B | 9 9 7 7 9 b  .[ [ d 9 3 9 3 9 9 d d d 9 d d 3 d 7 7 9 d 0 d d [ l w d d B [ d w w ",
"[ 6 8 g A 0 q A +.[ A A b 9 6 7 5 9 d 0 0 9 d 0 9 7 w k 5.t.] v d d 3 3 9 7 9 9 d d d d 9 - 9 9 9 w [ [ [ l d d d [ d d d d [ d ",
"' 2 0 0 D D x D [ [ D D R e 0 0 9 3 d 8 8 8 d 6 9 d d d %.9.A d [ d 3 9 3 d d d 0 [ 0 d [ 3 9 9 w w B [ [ [ d 9 [ d d } [ k  . .",
"0 4 7 8 +.R x x +.+.R D D q 8 8 7 9 [ d d d [ 8 9 A d N ,.t.1.5.9.[ 9 d ,.[ d } [ d d [ [ - 7 d 0 w d [ d [ [ [ 9 [ k k [ ,.[ [ ",
"D < 0 0 x b 0 [ O.O.D A R x 0 0 6 9 7 0 [ w 7 9 9 d d d +.,.%.;.[ d d d P d P [ w w B [ [ & 3 d w d [ B B d d [ 0 d d [ [ [ d [ ",
"0 < 0 b R ' D +.=.=.+.O.' D e 0 9 6 d B 8 [ [ 3 6 d Q d %.,.%.%.[ R R d [ R } [ [ w 0 B [ 3 3 [ k [ B d d [ d [ [ [ B B w d d [ ",
"8 4 8 r =.=.=.*.R O.' D O.R b x d d 9 9 d B 9 3 4 d d 0 d d } ;.[ P +.[ 1.d [ [ w 0 w | [ 3 5 B 0 k d d [ d w 9 0 d 0 0 9 d 9.[ ",
"0 * 8 D 0 v x O.O.O.R ' O.R D R k d B B I d d 3 6 d ( &.I I d d P +.+.P [ R [ [ B 8 0 B 6.3 9 d 0 d d [ [ | [ d 0 [ [ [ [ k  .[ ",
"7 & 4 Z 0 O.x O.[ [ D D D r 0 e 3 9 d 9 9 d 9 3 5 9 6 6 3 6 4 3 7 9 3 3 3 3 3 3 , , 1 : =   = , , 1 1 3 3 5 9 0 0 0 8 d 0 0 5 0 ",
"1 2 O % 2 4 6 2 4 4 4 6 6 4 4 8 3 @ o %   X = 3 = : - 3 3 6 3 3 3 3 $ 3 3 3 $ %   . . % ; = 4 : % = : , > : , > : - @ % % 3 . % "
};
