/* XPM */
static char *_30716a3e5604617e65c864df1c88623MbrxI6QGuArZJpLN[] = {
/* columns rows colors chars-per-pixel */
"64 64 172 2 ",
"   c #004128",
".  c #004A33",
"X  c #034D39",
"o  c #04553E",
"O  c #045A3F",
"+  c #035640",
"@  c #045A43",
"#  c #0B5B44",
"$  c #035C48",
"%  c #0D5E4B",
"&  c #135D45",
"*  c #135E4A",
"=  c #076147",
"-  c #0E6147",
";  c #0D634B",
":  c #146147",
">  c #14634B",
",  c #1A644C",
"<  c #16694F",
"1  c #1A694E",
"2  c #146551",
"3  c #196651",
"4  c #156B53",
"5  c #1B6C54",
"6  c #1D6E58",
"7  c #1C7056",
"8  c #1D725B",
"9  c #226D56",
"0  c #236F5A",
"q  c #227157",
"w  c #23735C",
"e  c #2A745D",
"r  c #25795F",
"t  c #2A785F",
"y  c #30765E",
"u  c #1C7562",
"i  c #1F7B64",
"p  c #247662",
"a  c #2B7761",
"s  c #257A63",
"d  c #2B7B64",
"f  c #257D69",
"g  c #2B7D68",
"h  c #317D64",
"j  c #307F69",
"k  c #268067",
"l  c #2C8066",
"z  c #2D836B",
"x  c #2E886F",
"c  c #328166",
"v  c #33846D",
"b  c #39856D",
"n  c #32886F",
"m  c #3C886F",
"M  c #278471",
"N  c #2D8673",
"B  c #2E8972",
"V  c #358671",
"C  c #398773",
"Z  c #348A73",
"A  c #3B8C74",
"S  c #358D79",
"D  c #3D8E79",
"F  c #349077",
"G  c #3B9176",
"H  c #36927B",
"J  c #3C937C",
"K  c #408B76",
"L  c #408F79",
"P  c #42947D",
"I  c #49977F",
"U  c #44987F",
"Y  c #489A7F",
"T  c #379280",
"R  c #3C9582",
"E  c #3D9A85",
"W  c #439682",
"Q  c #439B84",
"!  c #499C85",
"~  c #449D89",
"^  c #4B9E8A",
"/  c #509F8A",
"(  c #44A087",
")  c #4DA187",
"_  c #45A28C",
"`  c #4BA38C",
"'  c #4DA88F",
"]  c #50A087",
"[  c #51A48D",
"{  c #56A98D",
"}  c #46A491",
"|  c #4BA591",
" . c #4DAA94",
".. c #4FAD99",
"X. c #52A592",
"o. c #52AB94",
"O. c #5BAD95",
"+. c #53AD9A",
"@. c #5BAD99",
"#. c #4EB09C",
"$. c #55B097",
"%. c #5AB097",
"&. c #55B29C",
"*. c #5EB69D",
"=. c #5CB59F",
"-. c #5FB79E",
";. c #5AB49D",
":. c #56B89F",
">. c #5CB89F",
",. c #5CB89F",
"<. c #60AF9A",
"1. c #61B29D",
"2. c #57B2A0",
"3. c #56B7A3",
"4. c #55B6A2",
"5. c #56B5A1",
"6. c #59B5A0",
"7. c #5BB7A0",
"8. c #58B5A2",
"9. c #5CB5A1",
"0. c #5EB6A0",
"q. c #5AB7A4",
"w. c #5BB5A2",
"e. c #57BAA5",
"r. c #5AB9A3",
"t. c #5CBAA0",
"y. c #5CBCA1",
"u. c #58B9A6",
"i. c #5CBBA7",
"p. c #5CBAA4",
"a. c #5CBDA9",
"s. c #5CBFAA",
"d. c #5DBCA9",
"f. c #61B6A1",
"g. c #64B7A3",
"h. c #62B5A3",
"j. c #61B9A3",
"k. c #61BBA2",
"l. c #63BBA2",
"z. c #62BCA2",
"x. c #62BBA5",
"c. c #64BDA7",
"v. c #61BBA5",
"b. c #60BDAA",
"n. c #61BEAB",
"m. c #64BDA9",
"M. c #63BEAC",
"N. c #62BEAA",
"B. c #6DBEAB",
"V. c #5DC0AC",
"C. c #5EC0A9",
"Z. c #64C0AB",
"A. c #67C3AC",
"S. c #67C3AE",
"D. c #66C4AC",
"F. c #64C1AC",
"G. c #68C4AB",
"H. c #68C4AD",
"J. c #68C6AE",
"K. c #6BC1AA",
"L. c #65C6B1",
"P. c #68C5B0",
"I. c #68C7B1",
"U. c #6BC6B2",
"Y. c #6ECBB6",
"T. c #6BC9B4",
"R. c #6ECFBC",
"E. c #6DCCB8",
"W. c #70C4B4",
"Q. c #72CEB7",
"!. c #72CEB9",
"~. c #73CEBC",
/* pixels */
"l.,.{ &.D.t. .,.H.Y.&.6.Q.F.6.D.a.a.4.I.D.:. .I.R.u.V.C.4.:.&.y.Z.*.{ $.G.y.o.,.U.U.&.9.!.F.-.Z.i.d.t.I.H.,. .I.R.u.V.V.4.:.:.t.",
"A ! Q J P J R ` Q Q Q ` Q G $.;. .( _ o.( ;.x. .~ n.4.} ( Q E J G Y Y P G G J ' ~ Q Q | R J +.,. .~ '  .( ;.v. .~ n.6._ ( E E J ",
"c y m b q j A w 5 W P v a m I t 6 V P C w t m P 4 8 Z ! J l w m l c K c r c m r 5 W P c d V I w 6 v J C w a V P 7 8 Z R G k w G ",
"1 q , q m q # 5 D v & 5 A w , 1 q g 5 6 v e > 8 z 8 2 g Z 8 r q 1 1 : q b q - 1 A v * 0 A a , 3 w g 5 5 v e * w z 8 2 g n r r q ",
"v U ' ' ` ' ` ` ` Q J ~  .G B Q | R f z o.o.S B T | M u S }  .! l U ` ) { ` (  .` ~ J ~  .J B Q | R f z o.o.S B T | M u H '  .Q ",
"{ ' ( ) *.*.o.$.+.,.-.` o.l.-.$. .6.c.x.f.+.9.m.M.2.8.M.Z.&.' z.o.' ` { ;.$.o.$.+.*.;.| o.x.9.$. .4.c.l.l.+.;.n.M.2.8.n.m.$.' z.",
"! { ) P I ^ ^ ) ` ! [ *.O.) ^ O.[ U P ^ O.<.{ W h.h.+.` ! ! { I Y { ! P ! ] ! ^ ` ^ [ %.O.^ ) O.[ W W ! O.<.{ I h.f.+.X.Q ! { ! ",
"d 5 h c 5 C Y q : d c 5 > h A 1 , 5 m h , 1 A m 3 8 V V s s 0 l l 1 c c 7 A Y 7 > d c 5 : j A 5 , 5 C j , 1 A m 2 w V v g r q d ",
"1 7 < 8 v < . s C w # 4 d d q : , d # q t , > 6 4 ; 6 8 f 5 - 5 1 7 : q v < . s Z q # 5 d t q , , d # 9 a 3 * 0 5 ; 6 u p 4 > < ",
"7 G ' n U ! Z R ' G n Q $.n 7 n Q v p Z ] ] c s ~ ~ S f k J { l 7 G ' n Q Q n Q ' G Z Q $.n 8 v Q v r v / / j p Q ` S i M W ) z ",
"$.( _ $.i...8.I.&.&.:. .J &.$.' | ` 9.X.O.*. .-.2.2.u.L.T.t.| t.:.U ` $.t. .d.L.#.$.:. .R :.+.'  .' ;.' o.1.X.2.8.+.a.T.I.t. .:.",
"' (  .| _ &._  ...| &.' ' ( ` ` | | X.W ! +.o.Q i.E.4. ._ :.9.E _ ( ' ' _ &.~  ... .&.' ' ~ ` ` ` ' ' Q ! $.@.^ i.~.3. .} :.,.J ",
"w Z w w p D V 6 s A w 6 8 t w c e j K j & 9 j j 5 p g T V g V V 7 G w 6 s P g w s A p 6 0 w w j w m C j & 3 j j 3 p f D Z g V m ",
"l w w 8 0 0 2 0 0 3 0 w q t K O * y a y e 0 3 p 3 2 2 0 p 0 * 0 l r q 6 0 w 2 6 w 3 0 0 0 a C & , a e y e e * y 6 % * u w 0 3 6 ",
"@ g P J j u f S C g 2 N ! w o h K j * * K W 0 g T ~ C u u C W f o z P D V 6 p S V f 2 V ! w + d K C * , j W p g R ^ C u u V W s ",
"+.| | ` X.| } } E ~  .Q R ( ) ! W W ^ / ^ ^ h.h.X.X.w.2.+.~ ~ +.$.( |  .| | ..~ E ~ +.E R ^ ` Q R W ! ` ^ ^ h.h.X.| w.2.+.~ ~ +.",
"d. .2.U.d.+.} e.L.#.#.#.4.} ' o.K.1.{ O.B.<.X.<.B.W.2.2.~.~.M.W.d. .&.I.C.$.} u.L.#.#.+.:. .| $.B.<./ O.B.h.X.@.B.B.2.2.~.~.M.W.",
"E T R D H _ $.E E u.#.} T T ! D h v K K b K ! L W W ~ X.~ T ^ | E T J J F _ $.E E u.#.} H H Q A g b K K j K ! W W ~ ^ X.W T | | ",
"0 p j a w t J n 2 6 j C u g a a O y y , & 9 e 0 * d j j a p g p w p d a w t P v 4 4 V V w z d a & y y , & 9 e 0 2 j j j g 0 f g ",
"* p a a e # # s f % % f V 3 X 0 K O   , y 9 X * C K 2 + p j u # * a d e e # % p p % % g v 4 X 0 j *   , a 9 X * j W * + f g 0 + ",
"| D J ! ^ ^ J B R _ R f N ^ X.J V ! ! ! W ^ W W E ~ | ..| E E } | T D W ^ ` J N R _ R f V ^ X.D C ! ! ( P ) Q E E ~  .+.X.R E } ",
"} 9.i.6.-.*...M.w.w...2.M.^ ! O.*.` J o.h.@.} +.q.6.i.w.4.M.a. .| w.b.w.;.,. .M.u.u.#.#.M.` ~ @.1.^ J o.9.$.' o.i.8.8.6.2.M.u...",
"^ T Z J ' ` Q J  .2._ _ R C ! J P I D C C W W R ` ~ Q ~ ~ W Q { ` H V R ` [ W T +.2.} ^ J Z ^ J I U L m A P Q J ^ ^ R Q ~ W ~ | ",
"4 > 8 r < 5 Z z u 4 f u ; w 6 r 3 > e 5 # p D 6 @ 8 5 4 4 p l 4 8 ; 8 p 4 5 V g u 2 f u ; w 6 w 1 : w 9 # r D 6 + 8 6 4 5 p g 2 ",
"= k 7 z n = O 8 f $ $ f f = o 5 w , o , g 6 . g J r # ; 5 a 8 O $ k 8 x n O O 8 f $ $ f f % o 5 r > O < l 5 . f D s = = 1 d w @ ",
"| H Z H ` ` J n H o._ M B Q ` z s G ` G W Q U ` ( Q Q o.o.Z n G ' F B J ' { J x T +.~ g N ~ [ z r A [ G U U Q ' ` J Q o.O.n z J ",
"| ' :.&.o.$.| 6.i.} 4.d.M.+.| 9.Z.J E $.C...:.C.d.e. .$. .t.:.' o.' $.$.$.,.} :.q.} 2.d.d.+. .6.v.J Q &.i.o.&.d.i.i.$. .' z.,.' ",
"_ ' Q F ! o._ Q  .b... .H | ^ R E R R ~ T E ( E ( _ $.' Q Z Q Q _  .~ Z P [ _ Q ..b.+...T | ~ R Q E R E R E _ E _ _ $.' Q x Q ( ",
"5 d d 9 , , e d 0 2 0 p C 0 w 9 < d 5 7 8 v 8 7 f l 7 - q q 9 1 , t h q , , e d 0 2 0 p C 6 w 6 > d 6 5 8 n w 5 s z q - 7 q q 1 ",
", 9 q e y , : e a + $ 0 0 6 # 0 e q > w A a < w v w < t q m c : 3 9 9 e h , * a p # $ 0 q 6 & q t q > w C d 4 w v 6 > c q m t : ",
"J J s a ! ! g g W  .R T N ~ ^ N 8 J ` G Z k z Z J z 8 F Y r 8 A U P s p ! ! d g E | E S N ~ ` n 8 G ` J B f z Z H Z s Z P g w n ",
"Q ` ` X.{ { +.@. .~ ..#...E E  .y.'  .o.$.} }  . .' ..' ` ` o.Q Q ` ` { o.` O.;...~  ... .E E | i.'  .+.+. .}  . ._  . .` ) o.` ",
"z.;.{ $.Z.v.[ :.n.I.4.&.U.J.,.J.i.t.q.U.F.+.+.L.E.t.C.C.&.:.&.,.1.;.$.$.G.1.' ,.n.I.,.&.I.U.-.J.i.t.t.I.M.2.+.I.E.u.C.t.&.:.$.:.",
"n ) Q J J G Q ) ~ W ~ ` Q G $.;.| ` _ ` | 9.q.+.~ y.:._ ( E ( J G Q Y Y G F ( ` ~ R ~ ` Q D +.;.' _ _ | ^ 9.q.+.~ n.:._ ( E _ H ",
"c c m b w h K w 6 P G m t A I d 8 l L D 0 p C L 8 8 Z U J d w A d b m c q c G q 6 P L V s A W d w d P D 0 s D D 5 6 n ! G l w A ",
"9 1 : 9 m r O 5 L v , 9 A q > < w l 9 5 C s 2 0 k 5 ; l n w q w q , : q K q O 5 D v , 0 A 0 , , w d 5 5 C p * w z 8 ; k Z w w w ",
"v P [ ` ` | ~ | Q R J ~ o.G S Q _ R k z  .X.D N T ` M u S '  .Q l ! { ( ) { _ ' ~ E J ~  .G S Q ` R k z +.o.S N R | x u H ' o.Q ",
"{ o.Q ` -.;.+.O.;.x.;.o.` z.-.o.o.$.K.Z.*.+.w.b.n.,.t.i.n.$.| t.+.` ! $.1.$.$.$.@.b.;.X.| c.9.o. .$.m.m.*.+.h.m.d.&.t.i.d.&.` 6.",
"Y { ) P ! ! ` ! ` ! [ O.1.) { { [ ! P Q <.<.[ W l.1.o.` Q ! { U U { ! L ! ) ' ! ` ! [ O.1.^ { O.{ ! J ! <.<.[ W g.1.+.[ ! ! X.! ",
"h 1 c l 1 A I 7 : c l q : t G 5 , 4 m v * 9 L V 5 q V V c w 6 v c 1 c c 4 A I 5 > c l q : t A 5 < 5 m c * 9 K V 4 8 n v g w 6 c ",
"1 7 > 8 n < . s Z w # < s t q > 1 t # w d , > 0 6 % 4 8 s 5 ; 5 1 5 : q n 1 . s Z q # 5 d a q > , a # 0 y 2 2 0 6 - 5 8 s 4 > 4 ",
"7 G { n U U F J ' G Z ! $.n 7 n Y v w Z / / c p W ^ S k k R [ z 7 G ' n Q Q n Q ' G n Q $.n 7 Z Q v p C / X.j p U ` B f z Q ` z ",
"$._ _ ..C...,.I.&.#.;. .Q &.$.' ' _ ;.' +.9.o.6.2.4.d.M.Y.6.| y.:.U ` &.4. .d.F.&.$.:. .R :.+.' ' ` 2.| +.h.X.2.u.&.a.T.D.4. .6.",
"` (  .' _ &._  .+.| &.| ' ( ` _ ' ' ' Q ! @.+.~ q.E.w. ._ :.i.R _ ( ' ' _ $._  ...| :.| ' ~ ` ` ' ' X.W W +.@.^ q.!.4. .| ,.6.R ",
"p C 0 0 w J Z 8 s C a 0 9 s w h e j K j & 3 j C 3 p g T V f C V 8 G 8 6 d P g p s A p 0 5 s w h w b m c * 3 j j 3 p p D Z g V C ",
"g p 0 6 w q > q 0 3 0 w 9 e m & * y e e e 0 * e 3 2 3 6 a 0 * 0 d r q 6 0 w 2 6 w 3 0 p 9 e A & , t e y e 0 * a 3 * 2 u w w 2 0 ",
"@ g W D N 6 g V S f > N ! w + g K C * 2 j W p j R W S p u V W f O z P D V 6 p S V f 2 g ! w + g K V > > C W p j R ^ V u p V W f ",
"X. .| }  .| } } E ~  .Q R ^ ^ ! L W ^ X.X./ w.h.X.| 2.2.+.~ ~ +.o._ |  .| | ..~ E ~ ..~ R ^ ^ Q J W ! [ ^ ^ h.h.X.| w.2...~ ~ +.",
"d...&.L.C...} C.V.#...#.4.} ' $.B.<./ O.B.h.X.@.B.B.2.2.~.~.M.W.d. .&.I.C...} e.L.#...#.:.| ' @.B.<./ O.B.1.X.@.B.B.+.2.~.~.M.W.",
"E T T J H _ $.E E C.&.} T H Q F h b K K j D W W W ^ ~ X.~ T | } E R H H H _ $.E E a.#.} R S Q A g b K K C K W W ~ ~ ~ X.W T | | ",
"0 a z a w a P v 4 4 B Z w j d t & y y , & 9 e 0 * a g j g 0 g s w p j e q d P v 4 4 V V w z h a & y a , & 9 e 0 * j g j g 0 g f ",
"* s d p w # % s u = ; g V , o 9 b :   , h 9 X * j W 2 + s v 8 # * d d t e O % p p % % g v 3 X 9 b &   , a 9 X * j W * % g j p + ",
"} D D ~ ~ ` R Z R _ E f N ^ X.J n ! ! ! W ^ E Q W ^ | ....R E _ | T D ~ ^ ' J N T ~ E f B _ X.P C ! ( ! I ) E W E ~  .+.| R R } ",
"} w.i.9.;.*. .H.u.q...+.b.` ~ @.;.) J o.9.+.` +.q.q.q.2.2.M.d. .} 8.q.9.$.,. .M.u.u.#.#.C._ ~ +.<.^ J o.9.$.' +.q.8.8.6.2.b.u...",
"^ R Z J ^ [ Q H  .2._ ~ J Z ! L U U G m C P U J ^ ~ W ~ ~ R Q ` ` H Z J ` ' E T ..#.} ~ R B ) J I P L m Z P ! J ^ ~ J ~ ^ R ~ X.",
"4 ; 8 s < 4 Z z u 4 M u ; 8 6 p 1 : e 7 # r D 6 + p 6 2 6 p g 4 8 ; 8 s 4 4 Z f u 4 f u ; 8 7 w 1 > q q # r D 5 + w 6 4 5 p g 2 ",
"= k 7 z n O @ 8 f + $ p f ; + 4 r : O > c 5 . s G l = ; < t r O @ f 8 x x O O k f $ $ u f ; o 4 r : o , l 4 . s A k # ; < d r O ",
"_ F B J ' ` J Z T ..} N N E X.z s A [ G Y Q Q ` ` G Y o.;.n n J ' F n J ' ' H k T ..~ N M E  .z r A ' H U ! Q ' o.J Q o.$.n n J ",
"..} y.:.$.$.| i.q.} 4.q.M.o.| t.t.R ~ $.i...:.C.i.e.:. .' Z.*._  ._ ;.&.$.,. .y.u.} 5.d.V... .t.y.J ~ $.i.o.&.d.i.t.:.| ' C.*.` ",
"} ' Q Z U ' ~ W ..d... .T | _ R R Q E Q H ( ~ E _ _ $. .J x R ) `  .Q Z R { ( E ..b.....T  .~ R R Q Q E H ~ _ E _ ( +.| R Z U ( ",
"5 t d q , 9 e d 0 2 p p C 6 e 9 5 j 3 5 8 v p 4 r v 5 ; 9 q q , , y h q , , e j 0 2 p p C 6 w 6 5 d 4 6 w Z w 4 s v 5 : 7 q q 1 ",
"1 7 q t h , & h a # % 6 w 0 # 9 w q > w C s < w Z w : c w v h & , 9 q t h 1 * h p # # 0 w 6 & 9 r q > w C s < w Z q ; j q b c : ",
"J J d r W W g f W | R S V Q ^ v 6 J o.R Z f z S H z s Z ! a s v W J a s U I d a W | T S Z ~ ` z 5 J o.W Z f M S G B s n ! g w n ",
"( '  .$.@. .2.2.X.^ ..2...~ ~ o.m.` ` +.t... . . .| o. .` { o.` Q o.o.%.$.o.-.9. .} +.+...E ( +.m.` ` +.6.o. . .o.} o.o.` [ { [ "
};
