/* XPM */
static char *_6c976b2c7194a22bf9479aa393d6414z1DZajDnc6p4QsdK[] = {
/* columns rows colors chars-per-pixel */
"64 64 243 2 ",
"   c #3B0400",
".  c #3E0A00",
"X  c #440300",
"o  c #4C0200",
"O  c #450A01",
"+  c #4B0B01",
"@  c #540400",
"#  c #5A0300",
"$  c #530C00",
"%  c #5B0C00",
"&  c #4D1102",
"*  c #4C130B",
"=  c #551302",
"-  c #5B1302",
";  c #5C1A06",
":  c #54150A",
">  c #5C160B",
",  c #55190B",
"<  c #5C1B0B",
"1  c #5E1D11",
"2  c #561A10",
"3  c #640400",
"4  c #690500",
"5  c #640D00",
"6  c #6C0D00",
"7  c #730C00",
"8  c #7B0E00",
"9  c #720700",
"0  c #641301",
"q  c #6C1401",
"w  c #641A04",
"e  c #6C1B03",
"r  c #611609",
"t  c #631B0A",
"y  c #6B1C0B",
"u  c #6B170A",
"i  c #731401",
"p  c #7C1401",
"a  c #741B03",
"s  c #7C1B02",
"d  c #741D0B",
"f  c #7B1D0A",
"g  c #761608",
"h  c #681B12",
"j  c #721D12",
"k  c #791E10",
"l  c #5B2410",
"z  c #6D2105",
"x  c #6C210A",
"c  c #67220D",
"v  c #742105",
"b  c #7B2204",
"n  c #73220C",
"m  c #7C230B",
"M  c #7C2A0D",
"N  c #782C0A",
"B  c #6C2111",
"V  c #662419",
"C  c #742314",
"Z  c #7C2413",
"A  c #732B15",
"S  c #7B2913",
"D  c #76281B",
"F  c #7D3115",
"G  c #772622",
"H  c #830C00",
"J  c #831500",
"K  c #8C1500",
"L  c #841C02",
"P  c #8B1C01",
"I  c #831D0A",
"U  c #8B1D0A",
"Y  c #931600",
"T  c #9B1700",
"R  c #941C01",
"E  c #9B1C01",
"W  c #961D0B",
"Q  c #9A1F0C",
"!  c #8A1E11",
"~  c #A21E00",
"^  c #A81F03",
"/  c #842203",
"(  c #8C2303",
")  c #8E2906",
"_  c #84230A",
"`  c #8C240B",
"'  c #852A0D",
"]  c #8C2A0B",
"[  c #822805",
"{  c #932303",
"}  c #9B2302",
"|  c #942904",
" . c #9C2A04",
".. c #93240B",
"X. c #9B250A",
"o. c #942B0C",
"O. c #9B2C0B",
"+. c #9C320C",
"@. c #94320D",
"#. c #842413",
"$. c #8B2611",
"%. c #842A13",
"&. c #8B2B12",
"*. c #822D19",
"=. c #8C2B19",
"-. c #922612",
";. c #9B2513",
":. c #932C13",
">. c #9B2D12",
",. c #932B1B",
"<. c #9C2E1A",
"1. c #8C3114",
"2. c #82331D",
"3. c #8A321C",
"4. c #843514",
"5. c #943214",
"6. c #9D3213",
"7. c #94331A",
"8. c #9C341A",
"9. c #99381E",
"0. c #9B3B13",
"q. c #A32401",
"w. c #AB2401",
"e. c #A32A04",
"r. c #AB2A03",
"t. c #A2250A",
"y. c #AB260B",
"u. c #A32C0B",
"i. c #AB2D0B",
"p. c #B42501",
"a. c #B32C03",
"s. c #BB2D02",
"d. c #B32D0C",
"f. c #BC2C07",
"g. c #AC3106",
"h. c #A3310B",
"j. c #AB320C",
"k. c #AC380E",
"l. c #A13006",
"z. c #B43306",
"x. c #BB3304",
"c. c #B4340C",
"v. c #BB340C",
"b. c #B3390D",
"n. c #BD3A0E",
"m. c #B63A06",
"M. c #A32D12",
"N. c #AA2C11",
"B. c #A22A19",
"V. c #A02611",
"C. c #B42D10",
"Z. c #A43413",
"A. c #AC3413",
"S. c #A33A15",
"D. c #AC3B14",
"F. c #A3341A",
"G. c #AB351A",
"H. c #A43A1B",
"J. c #AA3B1C",
"K. c #B43413",
"L. c #BB3513",
"P. c #B33B14",
"I. c #BB3C14",
"U. c #B1351A",
"Y. c #B53C1B",
"T. c #BB3C1A",
"R. c #BB351A",
"E. c #8E3423",
"W. c #863521",
"Q. c #9D3623",
"!. c #943925",
"~. c #AC3D23",
"^. c #A63924",
"/. c #B33D23",
"(. c #B83D27",
"). c #C22D00",
"_. c #C33403",
"`. c #CB3403",
"'. c #CB3A04",
"]. c #C3340C",
"[. c #C9360A",
"{. c #C53B0C",
"}. c #CB3C0C",
"|. c #C63901",
" X c #D23602",
".X c #D43C05",
"XX c #D23C0C",
"oX c #DB3F0F",
"OX c #C33B14",
"+X c #CB3D12",
"@X c #C33D1B",
"#X c #C03611",
"$X c #D53E15",
"%X c #C73D21",
"&X c #AE421B",
"*X c #BB431B",
"=X c #B3431C",
"-X c #9A4125",
";X c #9E4D30",
":X c #AC4223",
">X c #A8472D",
",X c #B54423",
"<X c #BC4421",
"1X c #BC4A24",
"2X c #B54529",
"3X c #BD4A2B",
"4X c #A14937",
"5X c #AF5231",
"6X c #C9410C",
"7X c #D3420D",
"8X c #D6410A",
"9X c #C54214",
"0X c #CC4214",
"qX c #C3431B",
"wX c #CB441B",
"eX c #CC481A",
"rX c #C54916",
"tX c #D34414",
"yX c #DB4412",
"uX c #DB4A16",
"iX c #D4441A",
"pX c #DB461A",
"aX c #D34B1C",
"sX c #DC4C1B",
"dX c #D34B17",
"fX c #D9511E",
"gX c #E44B1C",
"hX c #E84D17",
"jX c #EB511D",
"kX c #C14221",
"lX c #C44923",
"zX c #C84928",
"xX c #D44C24",
"cX c #C9532C",
"vX c #DB5626",
"bX c #D95831",
"nX c #D75B36",
"mX c #CA5230",
"MX c #E45322",
"NX c #E95627",
"BX c #F45D2B",
"VX c #E24F24",
"CX c #FA622E",
/* pixels */
"v 0 a b P ( ) @.L  .i.q.} { ( ] ( O.[ L ,.9 L P /.(.w.v. .P { | J _ 7.s b [ v = + ; y #.^.U.c.E N.Y L.r.} P X. .u.c.g.{ L ] J.U ",
"b s a / P L | 0.) k.i.e.R J ( L P Z.=XJ ` ~.| J X.Y.bXI.P.&XlX| p a s b b a v 0 X = % f W t.i.r.q.i.L.v.e.{ P R } e. .( s ( 6.X.",
"+.o.p L L J / o.&X&XX.} { } u.e.t.j. .{ E =XP. .P u.lXe.P +.J.L i q a z e q d q % r 0 d L } u.n.a.a.a.d.e.{ { L K Z.H.@.[ / u.r.",
"|  .( ( $._ a b _ ( o.{ } t.u.j.q.q.e.P.R X.l.| @./ J ( o.8.:.I i q *.e q 5 f Z y r e a L { } I.OX].v.w.e.O.H.O.R { 9.>Xi s A.E ",
"{ R { i s q 5 #.7 p ] ..O.M.} t.~ w.u.P.{ P 6.8.b 0 0 f &.s a ` s 4 d e a 0 d S w - 0 d ] { Y r.#XL.w.q.} O.( S.6.J ' 3.M a Z.X.",
"{ { F.:.=.q # q i a p P X.X.R K u.A.O.Z.Y.{ 7 # ' q m i i p p p I I 6 s v a d e - - $ n =.U u.e.~ ^ d.u.O.( s o.( i 0 o S s p } ",
"| { h..._ m a e a [ ( | i.X.P P F.X.6.{ ,X3XJ 9 / ) ] ` p ( L ..` <.` ] / a e w < 1 % 5 g I ` { T d.zXu.o.] 4.0 e t $ - % &.J E ",
"|  .O.P p 1.7.' / ( | } N.u.J / ` p J L +.Z.^.2X . .8 P ( { ( Z...R K ..:.s 0 w t t C 5 5 _ 7 p i.%XU.P L a w $ t = $ t 0 _ S.e.",
"X.} E V.-.=.9.&.p { X.Y y.y.W U P s J ..>.J 9 /.P.r.E E ,X{ } R P P { P ..p m a # W.!.D E.6 6 ..Y.q.Y A.p 5 - + * < t e a ( e.j.",
"u.O.^ ;.H p L ` P X.i.v.%XL.E X.L ` R o.L i 3 p T.wXq.i.} Y t.} J { { R P :.$.s q 6 f f s i _ o.u.E u.A.6.a - = + > w b ] +.u.e.",
"r.e.j.M.8.:.I 6.,X .r.lXL.v.t.Y K X.U.G.4 6 u #.D.z.q.} } t.C.y.Y P ....( ` 7 _ :.J p s a J P u.u.t.Y X.6.s z c - @ i 5.Z.e.R R ",
"} } P ..] L 7 Z.,Xe.z.q.r.q.r.} u.A.R.N.` a 6 F.*Xr.T E i.t.%Xr.A.V.{ P P ( p p L ` L p 6.u.t.L.qXr.q.G.O.s n 0 $ % _ S.k.{ R } ",
"h. .( :.i # 4 >.P.P.c.d.E E } X.X.Y ~ a.P.O.J A.aXtX{.n.K.} R.d.t.zXY R 6.| L ) >.>.L P =XmXxXOX{.w.I.A.L g - = $ e &.P e.e.g.e.",
"{ s &.5.$.I F.A.q.z.].$Xz.e.M.{ M.u.z.v.r.X.T.v.s.'.dXz.w.~ v.OXE T.kXN.{ O.6.{ G.u.K  .u.u.r._._.x.T.R I d - = @ C %.P D.*XcX*X",
"_ / _ L -./.h.{ a.tX).VX#Xi.P P ..G.i.w.K t.%XK.w.{.6Xe.r.e.fXfXc.r.I.c.e.u.u.Z.u.E Y i.g.} Y r.{.9X} U #.0 % o % F =._ O.P o.o.",
"i s ] p (.<X .} 0XuX XgXx.E  .P U P i.I.} X.K.r.d.OXrXe.j.l.m.rX .z.~ a.q.e.e.A.E } K.t.} E r.K.0XOXK I k t $ - h E.p 8 ` ` s 6 ",
"%.b L P J.Z.k.e._.NXBXjXg.} m.bX{ R e.kX(.K W U.@X~ u.O.{ | (  .P Y w.a. .h.u.} y.i.w.w.w.d.C.r.v.I. .[ q - = , r C J K ,.I q n ",
"%.] o. .G.{ @.j.~ 6XyXxX*X*X9XwX<X .L 6.H.` U 2Xu.} Y K p P +.{ u.r.tXaXe.( e.} i.q.~ w.y.C.i.} r.i.u.| a y + + @ d ! B.-.8 % n ",
"4 p ( O.6.P L ( b.eXn.Y 7 ( i.r.1X@.v e o 2.q L { { } } t.Y j.y.w.x.jXfXe.( Z.E Y A.i.E f.U.M.X.t.q.j.T.>.p t @ @ g F.>.L i s i ",
"g 6 J G.F.p 6 / k.e.l.{ _ _ X.X.{ / w + O < F i J { A.K.a.q.^ ].0XuX.X`.P { u.t.Y K.d.q.i.q.( L O.X.N.K.Y...3.e 5 ] >...s $.$.L ",
"f q s J.,.p 7 L e.} j.S.9._ @.6.L 9.t X < ; 3.&.J J { <Xd.].p.[.gXhX`.[.t.} e.E E K.w.q.c.} ` 7.#.i O. .{ H.-Xe q ] | ( { o.J o.",
"p L ) S.o.,.7.:.S.D.u.J 5 q b ] o.m $ O , ; q 9.( J O.cX@Xp.[.$XyX8X[._.r.} OXa.r.w.z.{.r.Y s i i i L +.{ 6.' q a [ k.k.+.{ K Q ",
"t.N.}  .{ ..O.F.o.` I 8 i f g a _ n $   . + % i { i.*X*Xb.Y OX#Xp.}.[.z.i.~ +Xs.s.w.{.aXxXD.7 7 ! p J :X{ 6.` 4 / ] =X*Xe.u.X.W ",
"~ T.u.R Y Y K { L _ #.g g d i q i d = O . < # U kXqXr.r.b.g.r.^ a.aXx.w.a.w.oXyXiX+XtXa.wXnXJ i ,.p s ` L G.` 3 a b 6.{ b.u.X.Q ",
"i.A.D.*Xz.r.j.( 5.' M !.&.a s s :.d % & O r ] A.@XwXv.e.e.b.e.q.r.0XeXx.x.s. XhXpXv.].a.~ I.G.P ! L 6 i p F.8.6 C - s 0.*X} E W ",
"8.:.S.S.j.T.A.{ q % 5 e %.L ( R ` ` - B A 6 F.(.v.a.n.E r.b.T r.x.dXa.s.^ tX XjX}.a.v.~ ~ j.A...J a a a L ..&.u r $ 5 ] D.j.B.;.",
"D % w b g ,.5X7.m i 6 i p o.u.{ Y <.k 5 %.| lXv.q.r.c.r.v.].w.f.6X8X'.w.s.[.CXhX~ d.i.} Y e.X.J.( a v e _ a v e = $ 5 _ o.O.<.B.",
"  o X 0 u 4 *.4X4X6 p I s 5.h.u.G.^.j 5 %.S.rX~ q.u.j.r.].f.f.+XuX8X|.uX+Xa.MXXXv.U.i.t.K X.t.A.u.( s q _ a w w - r j d 5 # 8 Q.",
"h t t $ $ c ; + S a L &.s &.^.h.O.o.w r 5 s k.b.Y.} i.n.XXXXiX[._..X'.}.OXw.s.w.I.e.N.O.P P N.u.t.} Y P ..$.v a Z j j 5 % @ 0 m ",
"D C c < + & l = w %.s :.s s P >.| s e x 5 s { { Y.H } qX+XyXMXp..X`._.{.K.K.w.OXq.e.i.X.L J W U.@XT.R.Y.M.F.] m d C k % : = x v ",
"x c + : + O : + @ m >Xp a a 7 <.F.p s s L { } K.>.H Y K.s._.7Xx.[._.{.w.E U.P.I.r.g.q.R ..L H G.h.r.g.I.t.M.6.' a v t + O , x e ",
"w + O , V 1 : r n a a J Z.F.U J ( p _ :.,XA.i.} /.Y X.i.wXaX|.'._.0X+Xq.Y Y u.K.~ E b.u.6.s p { ..{ j.Y.Y K $.a q N V 2 * * - 0 ",
"w $ ; $ r G C u n ' / L Y.N.Q X.R J p 8.+.g.E ~ K.u.Y Y q.+X+X_.'.|.uX9Xj.X.K (.q.i.j.,X:._ p ` p L H.Z.J L s j 0 = 2 V , = 6 a ",
"3.n t % r h j q ' @.@.| =XK.y.N.G.J L ` R e.a.a.I.L.U.T w.{._.[.s.7X).x.n.K H B.A.E { L s s p 9.:.7 p J p :Xm $ $ < $ > : @ _ ..",
"` _ #.d u q z M b ( S.u.Y.P.P.*XG.R P L { j.q.q.I.r.L.L.+X_.`.XXp.VXoXtXOX} K ~.} { s 5 x e s { >.P L s o./ M 0 - r r y h q ^.<.",
"J -.&.a q % e q s J | { P P {  .u.u.U L O.A.y.T.w.a.w.OXXX`..X`.[.tXXXXXv.u.} Y.P.D.s 5 w w o. .O./.` s :.s b S $ w x t C 5 k #.",
"*.d a 3.!.n q e a 7 L I i / [ +.A.t.} K X.e.T.f.tXMXs.}.uX'..XuX[.].s.].a.j.e.e.~ qX&X%.% f ^.U.i.u.8.s s s 5 ;X;XN w - t $ w W.",
"e q i i m Z n g d s _ f e m a L S.u.} R } i.K.~ uXCX[.).w.'.8X6Xf.p.].n.r.K.q.q.c.lX] %.5 Z <.P } Z.] i q 5 a N 4.5X4.= O & w n ",
"e q m g q w 0 q q %.=.I s i i p { A.K.E q.v.f.+XhX X7Xw.s.a.aXx.w.~ c.q.q.I.a.v.*XZ.5 D V 5 _ ` ( / b %.0 0 # i ) 0.[ w O   ; z ",
"' s s q - z n S 5 E.^.8 i 7 s ] ( Z.T.E r.{.x.uXhX X).s.d.wX0Xr.w.~ b.g.E c.wXqXA.' r + * $ s ] a a e 4.!.D %.7.| +.' z O . z N ",
"@.@.s a d y n n % _ ^.U U J a :.i J nXwXx.0X+XiXyX Xw.p.w.v.wXa.w.r.c.c.r.e.qX*X( # 1 . . = a a q q e g g #.I U { ( L d $ o m ' ",
"( D.( %.*.q d y % &.>.W /.L a _ i 6 P.xXeX{.p.p.s.0Xq.a.f.OX}.p.{.#XE K.qXkXi.{ 7 % + .   + m [ s a f q g U ..o.S.O._ 0 > o 5.o.",
" .| ( i i u d d 0 %.F.R B.L q a q / P r.I.z.^ d.a.@X} r.]._.oXoX$X].p.@XmXO.J ( 9.e = , + @ m ] :.I g 4 J M.D.Z...6.7.a 5 i p ( ",
"I.b.J.o.I u u 5 e -XJ.R t.O.7 ' 7.( E K.q.q.L.E E e.} q.].`.gXgX[.p.].K.*X{ L s %.W.; <   z Q.L >.:.#.Q.F.h.}  .L b 6 &.L / | 3X",
"OXbXK.>.E.d - $ e 1.{ Y.K.A. .| L U ~ d.e.i.K.Y X. .{ Y _.XXyX+X].^ ~ d.d.A.{ s i F ; O + w / (  .o.b ] } g.e.k.s q i F.2XO.Y O.",
"e.A.U L I n = X $ q a M.K.z.} { { G.R.d.~ e.N.E X.h.} e.vXNXv.w.y.C.Y t.} } { ..L q 2.o z b @.1Xe.l.( 7 R m.rXb.| J |  .Y.Y.} Y ",
"v s _ I g j , O + $ d s ..i.d.r.q.r.C.f.w.E ^ y.}  .( e.iXiXe.u.E h.( p P P E t.2XP ` H.6.P O.kXrXrX*X*XaXdX{.q.u.>.{ i.e.q.t.E ",
"N N m g 6 d V , : < $ 5 ..} T.L.r.d.y.w.r.w.i.t.} l.l. .a.q.} P X.P | { u.e.~ T.Y.W P /.*X} R } bXx.} a.MXBXNX].i.u.K.A.q.i.A.j.",
"N N w % # y W.h < $ r g U Y OXwXv.w.T ~ t.A.} E A.} g.e.z.} g.} rXz.N.u.e.qX@Xf.q.G.X.X.T.i.E Y R e.E a.sX XsX+Xe.X.*X*XK N.Q E ",
"[ v - + $ D F % X $ r #.K q.9XI.r.E q.j.u.P { u.Z.t.r.e.g.I.e.m.vXaXw.i.e.OX}.p.c.<Xu.K } j.i.} P P i.I.sX).pXa.Y Z.J.O.X.X.R } ",
"/ J d = + A c + : r j I R I.z.c.z.r.e.l. .L +.H.{ A.t.Y N.<XT.E 9Xx.^ y.v.aX X).v.*XX. .b.g.O.u.} M.u.v.0X].f.w.D.S.s L -.^.H.O.",
"P L d - ; A = = $ > g K A.I.r.I.*XcXcX,XP J o.8...P } M.Y Y zXq.a.L.^ K.n.[.oXpXc.8 6.&Xu.} K  .o.E E ~ a.n.OXL.O.4 # i -.$.6.s ",
"L b a v e z $ = r j f ;.G.q.g.*XD.e.u.+.s / _ L 8 p U P K X.u.G.e.9X} h.Y E s.OXF.7 i $.G.U.U.N.Q i.q.d.~ d.t.*XZ.i v m :.L I ` ",
"' s L 7.b 0 = = h j f Z.} Y e.l.u.K J p s a a &.I 7 ` P ..X.P K e.u.e.{ } } a.R.] q 6 4 B./.o.K Y t.L.L.zXj.e.,X:.m 3.,.^.` 8 a ",
"%.i L >._ a x & : - d >.N.t.~ e.O.` p s f a 5 0 b %.:.P P { { J } } R } h.e.wXT.p 3 6 _ ;.R ..L ..E c.@XA.u. .P o.s d g B.P ( / ",
"f s { O./ a t & O - 5 J K.E q.T...7 4 E.D !.W.% q b s ..P P { P } { X.,XR { r.T.:X7 J :...L J P { { r.w.Y  .o.p [ !.*.$.^.J ..9.",
"g s ( o.o.a = & + ; i J Y L.kXA.J i f 5 5 x y y 0 i p ` ..P R ..F.U W ..U 8 { M.2X8.S.@.L L 7 [ ( K y.C.{ o.( b ' !.E.g J K ] _ ",
"q i >.( L i r + + D 7.>.u.lXg.Y U &._ i 0 % 0 e g q f ] o.` 6.` ` J ..8 #.#._ ` 7 L &X1X .O.H.6.a J t.N.o.` b v q a j ! -.! a 0 ",
"% e 5.J J J u y $ - L ..u.I.q.Y X.X.` 7.6 5 g e e a m f i 6 s m a p J 7 u D q k @ 7 ( ,XS.O.>.` J ` Q ^ R i q e w @ q E.=.#.0 ; ",
"% v 5.....o.q 0 % - &.| } a.@Xc.} Y Y -._ i S q q d i m d s 6 a _ a 7 $.g @ @ *.!.b J Z.{ ( ..] ] ` B.B.I p a 0 a q q 6 4 m z w ",
"M a _ ` { .._ q - o b Z.n.+XVX%Xd.i.Y ( ..$.a d q a i a e a 0 e s / P ..s 6 _ 7.&.[  .+.( ` i 7 #.` ;.U i _ b N m i s q e M e z ",
"v a L ` F.o._ q - 0 i { x.NXxX~ c.e.u.P 6.` _ _ i i _ a q a b a i L ..P L &.Q.=.s L ( J ( :.6 i p s U p / ) s _ -.7.:.q q a v b ",
"[ s s a :.o./ b i f P y.x.sX+Xv. .P { >.s s f I s s :.` ] :.:.s a a ` ` _ &.g 6 q 5 s / ( o.L 6 / [ J p / [ L :.M.M.Z.o./ a s | ",
"_ a b i L 6.o.$.g I V.r.s.`.a.g. .( L ` a q i _ _ ` :.P J P ( ( a L :.5.5.*.7 5 $ x %.$.>.o.9.( o.` / / / / { O.Y R } O.( / ( ( "
};
