/* XPM */
static char *e1956a8c4b184010a88e0ec8aafee347FJEbhQNTpyrii4sO[] = {
/* columns rows colors chars-per-pixel */
"64 64 170 2 ",
"   c #2E2A22",
".  c #3E372F",
"X  c #433F36",
"o  c #423E3D",
"O  c #4A463E",
"+  c #4E4A42",
"@  c #4F4E4D",
"#  c #534F46",
"$  c #514E4B",
"%  c #555146",
"&  c #55514D",
"*  c #5A544C",
"=  c #5C584F",
"-  c #545453",
";  c #5C5A54",
":  c #5E5C59",
">  c #625C53",
",  c #625E5A",
"<  c #65625C",
"1  c #68645D",
"2  c #6D695F",
"3  c #726C5E",
"4  c #656462",
"5  c #6A6662",
"6  c #6B6964",
"7  c #666469",
"8  c #69676A",
"9  c #6D6C6A",
"0  c #706760",
"q  c #726D65",
"w  c #786B62",
"e  c #716E6B",
"r  c #767166",
"t  c #74726D",
"y  c #7B756D",
"u  c #7F786E",
"i  c #747473",
"p  c #7A7673",
"a  c #777976",
"s  c #7C7A74",
"d  c #767578",
"f  c #7A777A",
"g  c #777A7C",
"h  c #7D7C7A",
"j  c #82796C",
"k  c #827D74",
"l  c #827E7B",
"z  c #7F807C",
"x  c #868277",
"c  c #84817D",
"v  c #8B857C",
"b  c #8D887D",
"n  c #91877E",
"m  c #948F7C",
"M  c #7D7D80",
"N  c #807F84",
"B  c #7F8084",
"V  c #858482",
"C  c #898683",
"Z  c #8B8985",
"A  c #868689",
"S  c #8A8688",
"D  c #8D8C8B",
"F  c #928C85",
"G  c #918E8A",
"H  c #8F908B",
"J  c #979183",
"K  c #94928E",
"L  c #9A958D",
"P  c #9D998E",
"I  c #9C9384",
"U  c #8E8D90",
"Y  c #938F90",
"T  c #8F9092",
"R  c #959492",
"E  c #9A9693",
"W  c #9D9A95",
"Q  c #969598",
"!  c #99979A",
"~  c #97989A",
"^  c #9D9C9B",
"/  c #A19388",
"(  c #A29B8C",
")  c #A29C94",
"_  c #A99F94",
"`  c #A29E9A",
"'  c #9EA09E",
"]  c #A4A096",
"[  c #AAA295",
"{  c #AFA896",
"}  c #A4A29C",
"|  c #AAA49C",
" . c #AEA99D",
".. c #B0A69D",
"X. c #B1AA9D",
"o. c #9F9EA0",
"O. c #A19FA2",
"+. c #9FA0A4",
"@. c #A5A4A3",
"#. c #AAA6A2",
"$. c #A7A9A4",
"%. c #ACAAA5",
"&. c #A7A7A9",
"*. c #A9A7A8",
"=. c #ADACAA",
"-. c #B1A6A5",
";. c #B2ADA5",
":. c #B8AEA5",
">. c #B2AEAA",
",. c #B9AEAC",
"<. c #AFB0AA",
"1. c #B5B0A6",
"2. c #BAB1A6",
"3. c #B4B2AD",
"4. c #BAB4AC",
"5. c #BDB8AE",
"6. c #AEAEB1",
"7. c #B2AFB2",
"8. c #AFB1B5",
"9. c #B5B4B3",
"0. c #BAB6B2",
"q. c #B7B9B6",
"w. c #BCBAB5",
"e. c #B5B6B9",
"r. c #B9B7B9",
"t. c #B6B9BB",
"y. c #BDBCBB",
"u. c #C0B7AD",
"i. c #C1B8AF",
"p. c #C1B6B4",
"a. c #C1BCB5",
"s. c #C2BEBA",
"d. c #BEC0BE",
"f. c #C4C0B7",
"g. c #C9C0B7",
"h. c #C2C1BE",
"j. c #C5C0BD",
"k. c #C6C2BF",
"l. c #C4C1BD",
"z. c #C8C2BE",
"x. c #C9C4BD",
"c. c #BDBDC1",
"v. c #C2BFC1",
"b. c #BFC1C1",
"n. c #C6C3C2",
"m. c #C5C5C2",
"M. c #C6C6C5",
"N. c #C4C4C2",
"B. c #C9C5C2",
"V. c #C9C6C2",
"C. c #C7C8C4",
"Z. c #CAC9C5",
"A. c #C4C5C8",
"S. c #C9C7C8",
"D. c #C7C9CA",
"F. c #C9C9C9",
"G. c #CECECC",
"H. c #CCCBCA",
"J. c #D1C6C5",
"K. c #D1CBC7",
"L. c #D1CDC9",
"P. c #D1CECB",
"I. c #D2D1CE",
"U. c #CECFD2",
"Y. c #CFD1D2",
"T. c #D3D3D2",
"R. c #D8D5D0",
"E. c #DAD9D7",
"W. c #D7D9D8",
"Q. c #DDDCDA",
/* pixels */
";.:.p.s.z.#.s %.C.q.9 ^ q.D.b.@.G M.k.n.s.0.3.B.P P [ 2.1.m m z x b ]  .z r g.5.a.p.4.0.s.Z.p.r.0.%.N.v.0.0.Y N G p.-.p.,.-.-.v.",
"w.F ;.x.s.f.z 9.F.H.e.d 8 D ^ A z =.3.w.s.>.%.K c | I ]  .( m 3 (  .;.1.z 1 g.d.r.| >.s.s.n.0.s.p.0.%.M.n.7.S f Y E ) -.v.p.-.s.",
"x.;.` 0.w.I.s $.C.M.F.y.$.~ o.Q @.@.z z K ^ Z x ' 1.1.]  . .] = z d.1.L 1 < 5.l.s.k.-.#.s.s.s.s.y.N.0.=.s.#.G G k f 8 0 Y p.p.v.",
"| ;.0.-.>.3.D c y.G.3.A.d.D.D.9.N.$.6 q.N.k.w.D w.3.3.3.1. .X.3 O ( { ] c 6 3.1.;.P.s.#.,.4.n.r.s.s.s.3.7.%.Y H.p.p.-.N 0 j N ..",
"F , 5 s 6 t t 9.y.M.t.b.N.M.D.r.G.Z t R.H.d.G.W E F.d. .$.;. .z = J } ] v s w.-.w.4.V.s.9.0.v.s.p.4.w.4.%.%.G K.0.y.P.M.v.*.` O.",
"s.` G p C t t I.N.M.C.H.A.F.Y.y.G.a z H.q.A.G.C.E ] C.3. .' ' c ; ] x.1.L E | f.B.3.9.s.0.>.p.s.s.s.V.w.q.w.E q.s.N.M.C.J.S.N.S.",
"J.x.-.| v 4 l P.d.y.t.G.D.H.Y.N.C.K c w.w.y.V.P.<.V h.C.<.<.q.c = u -.4.%.3.Z w.k.V.s.B.v.9.0.p.w.q.9.N.q.y.A 3.H.H.N.D.s.M.w.S.",
"B.p.s.=.l , G H.C.H.H.y.D.H.F.C.q.b K %.R.V.V.h.w.E V Z.q.3.;.q 6 O   + % F K ] s.p.n.s.s.n.0.9.y.N.s.c.y.y.g R 9.c.A.N.N.G.v.N.",
"N.k.f.#.5 & ` I.N.N.T.y.A.Y.d.T.%.b 5 ; s  .w.H.y.f.z | g.w.' 6 J ] b 1 ; y w.` $.H.s.s.7.9.Z.r.6.c.A.D.A.A.A g c.t.p.c.r.v.v.s.",
">.N.s.Z 6 & g U.R.h.A.y.y.D.d.F.} } P x 5 6 v F 5 K W b %.%.r y %.1.4.5.%.c w.f.L 3.Z.s.s.y.s.v.c.c.c.8.v.U.N 7 v.N.v.v.s.v.0.9.",
"V.9.V 9 W C @ : R y.F.Y.C.G.D.3.W 3.4.4.s.x.x.) L 5 3.} ] ] s (  .] P %.5.s L H.r.! w.9.F.y.S.y.A.c.c.c.c.e.Y 7 e.D.S.v.w.p.,.%.",
"R } Z K =.D : - 8 s D @.=.+.~ ^ ] l.f.w.s.1.s.K.;.q 1.;.' J x 1.4.4.} ] w.c y k.V.#.` y.y.r.v.9.b.b.e.8.T d O.Y *.W.H.S.v.s.r.E ",
"< ' @.=.$.l S ` q.8.T z i i B i =.w.0.3.3.%.%.s.w.c } } } b P g.<.4.1.1.4.c 2 3.r.x.=.q.N.y.s.r.6.E V p Z V Y Q V N.S.N.P.v.S 8 ",
"Z Z E ' 9.$.y.y.q.q.D.C.8.$.A z H.d.d.<.=.s.s.q.P.p F L } s ] 5.5.1.5.4.;.' c $.B.s.} D e.y.y.@.Y G _ W #.` Z l - r.r.b.v.^ D R ",
"e.y.$.' N.9.<.M.F.N.b.b.d.$.i B T.N.A.q.9.y.h.h.w.t W ]  .p ] 3.d.d.5.1.;.;.Z c ` ^ K h e d U ` .._ ..;.X.5.s.3.t A y.9.&.~ d =.",
"3.q.<.h.y.9.y.s.N.C.D.b.b.<.- ~ H.T.T.t.9.y.h.H.G.z 3.N.%.s | 1.X.g.5.5.d. .P H >.0.0.>.@.V ^ k.| [ | 2.:.5.4.0.9.9 g D A ~ U &.",
"3.-.3.H.N.r.0.r.s.s.n.H.G.9.- e.F.Y.H.M.y.9.y.M.R.D C k.k.r -.4.3.5.a.w.p.} F %.0.4.s.q.9.%.C W g.;. .p.4.:.x.s.9.9.i 8 V | @.3.",
"s.E k.V.0.y.y.*.w.s.s.s.M.v.@ @.h.F.C.H.M.y.y.F.H.9.C %.z.D ` w. .s.g.s.;.F k 0.s.w.3.3.0.w.1.c $.w.3.z.a.-.s.s.9.%.B h ^ ^ W >.",
"4.%.%.y.C.H.q.>.#.3.p.h.s.9.< D <.N.M.N.h.N.C.F.Q.9.g ] w.] ] >.;.w.w.-.E K W 3.k.w. .w.z.w.d.4.c %.5.h.s.>.9.y.%.&.d T =.W W 3.",
"L w.q.%.^ y.N.y.0.$.%.) %.C.i V =.y.N.N.q.9.q.N.E.C.W 3.3.D K 0.-.%.>.} K W s.w.s.f.w.l.I.k.f.Z.=.a 3.w.Z.4.-.0.c.r.d Y r.=.%.$.",
"p z 6 i z c W V G w.w.s.w.H.D V >.s.C.V.y.e.0.9.H.N.e.h.s.G L s.>.W K | %.3.s.k.N.N.C.h.C.V.V.k.C.=.t =.V.y.0.r.&.8.o.T &.B V c ",
"] q.z @.q.~ $.H & 4 ) ;.$.<.Z a W #.3.9.$.` =.y.s.M.y.y.s.l l n.` K K w.w.d.l.f.V.V.V.k.y.h.G.H.C.C.V i } C V R B A A i V R ~ R ",
"=.R z y.d.9.q.d.-.k 5 G  .%.^ s Z c D W A 8 V %.N.s.y.0.O.V E ` R K %.k.d.k.F.9.N.I.H.C.N.C.N.N.C.M.G h C 4 V ` 8.e.+.B 7 R ` ^ ",
"} V V 9.t.d.G.h.r.r.k } $.0.` r.3.>.3.l.w.$.D 9 i %.9.@.C O.s.r.k ) B.q.l.3.k.k.C.C.G.G.N.N.y.H.G.T.R 9 K k R s.8.U M =.Q A Y ! ",
"<.4 D y.6.t.b.H.v.E V ) } 0.R $.0.0.w.>.>.=.S.=.R W @.R V ) w.N.V , ,.v.S.y.s.S.N.M.C.P.H.M.b.M.b.y.$.<.' H q.<.&.g M t.c.e.9.8.",
"A 4 &.U.e.6.U.y.G f E G W ^ S C >.>.9.>.%.@.7.H.H.C.*.R Y $.-.>.s.l 5 v.s.s.=.N.y.h.N.Z.G.M.D.H.A.c.K w.f.W w.d.+.g e.b.b.t.6.9.",
"5 R y.y.=.t.9.H V %.P.B.<.R D t K 0.>.9.*.$.3.=.0.9.E V p.k.4.` 9.v.l 5 n.Z.y.F.I.H.M.A.d.N.H.y.d.y.D $.k.| ' %.d R b.A.A.A.9.@.",
"F N.M.y.&.^ D ' 0.B.s.J.l.h.9.R e E -.>.3.=.9.y.e.` E G s.v.s.s.>.9.B.e l r.T.M.M.h.h.R.N.N.F.N.e.3.R 3.k.3.' K a d.y.A.b.c.y.U ",
"-.) R K R W 3.w.p.s.Z.w.f.z.3.3.9.p V 9.=.9.y.3.%.R O.p.w.s.p.J.>.4.p.%., * G T.H.C.C.N.G.d.d.=.=.^ c d.Z.x.d.%.9.N.A.C.M.N.6.: ",
"P )  .%.K %.x.4.4.a.f.1.d.x.w.l.s.0.i p ` N.h.9.@.D E %.#.s.p.p.w.s.v.s.>.e o D H.E.C.C.w.F.d.N.N.=.} F.x.x.x.x.G.N.C.W.y.R i @ ",
") X.[ ;.c W l.l.5.x.i.5.f.l.f.d.y.N.y.V 4 ! =.#.C O.s.>.) #.p.s.s.>.B.J.7.) 5 , 9 T I.N.N.H.I.<.@.@.d.k.f.x.x.L.C.I.q.9.~ K e @ ",
"X.{ L P r y f.4.p.5.g.5.g.f.d.5.y.s.N.9.Q 7 4 f R #.#.p.0.,.p.s.s.,.p.B.s.*.k O.%.4 K T.d.q.h.d.R <.x.l.x.d.Z.Z.d.$.3.<.3.$.K s ",
"I [ X.X.k r f.5.a.4.5.5.z.f.s.w.>.7.s.w.v.9.S N Y s.=.,.,.-.:.K.,.-.s.s.p.%.s %.C.d.6 ' 9.b.b.' H Z.h.C.d.3.0.C.W L } 3.3.]  .L ",
"_ [ { X.u 1 f.f.p.%.%.3.f.z.1.l.s.0.7.S.N.0.G p F Y ! :.J.,.#.p.p.S -.s.P.k.l 9.C.T.q.a 9 Z ' H z $.;.q.w.5.| W Z W L ] ;.P [ J ",
"r y y 2 % = w.l.f.l.%.%.w.k.l.k.y.s.7.0.s.! R G l p 6 5 F 0.5.x.s.,.| 3.0.C.h } b.H.l.d.$.T ' K } } z z K W K p L 4.1.|  . .] r ",
"u { 1.H 2 1 %.3.=.x.s.%.3.=.k.0.v.v.v.>.7.=.G P.0.r.-.l 5 u x } #.,.,.#.3.0.D Z x.h.3.h.d.H.d.$.q.| 2 q.d.x.3.E w.3.1.1.1.5.%.x ",
"1 ] 4.W Z c 3.4.w.w.d.0.3.w.d.w.0.p.p.7.3.%.D H.,.0.G.N.h.#.W ] C < 6 p 6 t s *.q.h.q.q.3.q.q.} <.b s V.V.$.3.|  .x.5.1.<.] [ x ",
"2 W x.%.K E <.d.F.w.5.d.3.9.s.s.s.0.v.0.w.q.R y.v.s.N.F.C.M.C.F.V.W G p l e R $.' ] K ' W H E 3.H 2 J } Z k w.C.d.f.d.d.' x P K ",
"1 t <.5.w.f.3.3.w.C.h.V.3.w.f.k.w.p.p.J.3.h.T =.C.D.y.H.v.U.t.M.M.n.=.$.Z < z =.z z c z V ^ c %.] 6 > 1 < W 4.5.d.1.x.x.1.<.3.b ",
"6 O   + # < } f.l.1.3.%.w.k.l.s.V.p.s.s.9.w.a R t.b.A.N.A.U.N.A.n.v.d.=.V 9 1 z z K H E @.| G %.%.H s k L } | w.5.f.f.x.d.%.%.t ",
"J ) n 1 * X . 2 L ` | #.w.f.P.s.3.d.s.N.N.M.A d c.t.c.c.r.N.s.c.s.M.s.%.t z t 9 H ' ' P $.E G E ` %.K %.L.5.1.<. .d.x.w.;.w.P < ",
" .4.;.0.p._ v w * > w y C >.4.s.q.=.e.e.N.U.B 7 N.c.A.c.e.N.9.9.y.M.s.N z H H H ' ' <.<.3.#.}  .G | c 6 l.l.w.1. .P 3.5.} ] r t ",
" .( _ ;.a.4.5.x.( u L x 1 y G %.y.e.c.c.c.6.R 7 9.H.C.N.w.0.3.$.h.w.f V H z Z H '  .d.5.#.| %.3.` R ] < Z l.l.4.;.P  .d. .' t ' ",
"4.4._ _ i.2.p.2.( k 5.l.>.;.3.%.0.c.6.6.! g ^ U =.R.C.C.S.p.w.W K ^ W c 6 Z } H H P <.q.3.3.%.` 0.%.%.L 1 Z.d.x.d.;.' 1.] J Z 1.",
"X.a.2.X.2.| :.| b [ w.f.4.d.f.d.0.R c p N V ! E Z N.N.k.H.y.Z 4 1 R ' K r H } ' ' H $.0.5.w.w.%.` 9.>.$.6 | k.l.f.%.L ` ] c E a.",
"a.1.i.5.i.2.X.) Z <.3.3.0.q.3.' F F | ] %.} Z f ; q.q.y.h.W D Y V K J ' 9 c ] ' <. .<.5.=.3.s.q.>.*.=.W c ; b W K v F P | a } s.",
"5.a.4.4.5.4.4.J 3.4.5.$.' c R ' { [ { { X.2.5.w.r V c.9.$.Q d *.0.d.] %.K 4 3.<.<.<.<.q.<.3.w.%.*.h.@.C V t 1 s k s E ] [ s [ >.",
"4.5.s.5.s.5.` W l.l.d.d.q.' ' x.{ ( { 2.1.5.4.4.9.8 z D A o.U =.3.w.<.d.<.4 z ' ' <.<.0.=.<.5.%.D D V R E Z | %.w.;.s.s.3.y [ :.",
"1.a.f.p.s.) c  .0.0.w.d.l.w.K } a.1. .i.4.1.s.s.r.>.s 4 V @.#.7.5.$.3.1.;.' : } K >.) ..i.p.-.N c E 4.%.;.' ' <.<.} 7.w.v.t ;.4.",
"-.5.a.f.-.Z c 4.s.0.w.4.w.w.w.K %.s.1.z.s.;.s.w.w.#.c h ` E ) >.h. .<.f.q.d.Z y =._ p.u./ l _ _ -.3.f.f.4.w.1.<.6.o.` 7.J.F ) u.",
"3.w.w.%.E L W 3.k.w.} w.h.5.l.w.Z %.w.s.s.-.4.s.%.$.s H %.` O.>.<.$.d.2.d.d.%.t > s k > 1 k / u.>. .s.s.5.3.0.r.e.=.o.O.3.) ] 2.",
";.3.-.) L W w.s.s.V.w.l.L.x.d.F.%.t -.n.L.9.>.w.y.d.g H e.>.#.O.E 4.d.1.1.5.5.1.k r k / _ l / :.u.}  .;.w.3.w.0.y.v.9.7.0.K F 5.",
">.) G | %.3.k.h.h.l.L.d.C.Z.C.d.y.K 4 7.S.p.9.r.@.$.o.Q @.A S l y G } } l.;.w.1.4.( 4.4._ 3 ..:.p.g.-. .1.5.q.y.7.v.H.M.y.Z E f.",
"` K R s.w.y.s.f.H.l.l.l.h.h.H.Z.F.y.l h Y S D Q S V @.T D Q ! R | 3.` 4.f.1.f.4.4.[ ) ..u.j / u.:.g.4.-.4.3.4.y.7.e.e.b.A.i c z.",
"G E -.s.k.n.N.9.h.R.F.G.h.C.l.C.M.y.^ D l e G W O.$.9.+.d D o.@.| $.) 3.f.%.f.l.5.:.:.:.u.k k u.2.:.:._ l.w.3.y.r.t.c.9.@.V W ] ",
"s E M.p.s.>.V.k.C.Z.G.F.C.h.d.H.H.H.^ l G ` >.y.$.v.c.y.o.A R Q $.G K w.3.<.5.f.s.-.J 4..._ > -.u.2.:.P } 3.>.N.M.v.t.@.c @.N.<.",
"N 5 ,.s.N.v.s.N.C.C.H.H.H.C.N.N.d.d.} <.q.=.w.C.C.C.d.d.b.t.=.e.%.6 R N.w.d.w.Z.9.F 6 P ;.w.0 w _ :.,.| #.=.7.0.S.H.=.D z W y.N.",
"p.l 8 n.h.y.>.N.y.d.C.F.F.C.C.C.h.d.P 3.C.4.5.x.x.G.Z.h.b.y.<.q.A 4 @.y.w.d.h.%.r h F F E L k y I -.[ E >.s.#.7.e.N.O.Z ~ =.>.*.",
"w.n.l 5 M.N.y.Z.G.C.N.N.h.N.F.M.h.q.c $.k.x.Z.Z.d.x.H.C.C.d.8.+.6 R d.d.q.0.H 6 c %.I.k.-.W Z 2 j 4.-._ -.7.r.7.9.#.S h s.0.>.$.",
"4.0.v.e l r.T.M.F.l.C.I.M.h.D.h.q.<.K w.l.x.x.x.l.x.C.h.N.d.y.D V d.N.3.R t e ' w.k.V.V.f.V.>.P w F _ O.0.r.e.r.*.R R D N.n.v.s.",
">.9.r.-., $ G P.M.H.C.N.N.F.d.%.<.R Z d.x.K.g.x.G.G.x.C.y.9.=.: 3.h.} c i z  .d.w.w.Z.s.f.l.0.0.%.2 l %.7.e.v.7.*.R ` w.>.s.p.B.",
"9.s.z.p.3.9 o Y P.T.P.h.N.C.d.M.C.$.$.N.z.L.Z.x.x.Z.Z.I.c.9.+.@ } 3.>.0.W %.Z.w.0.s.f.%.l.k.s.f.Z.4.s e O.v.c.e.` V L 3.#.s.p.p.",
"s.-.C.P.3.W 5 , t R H.P.y.I.C.3.' =.s.V.f.k.x.R.Z.d.d.d.=.o.M @ W 9.%.%.u ) Z.a.5.z.f.4.s.k.s.p.s.f.s.S 7 Q =.&.D @.s.:.( -.p.s.",
"n.9.4.B.V.-.f ` $.4 R H.y.h.M.e.R 8.s.V.V.s.x.Z.d.<.<.$.6.9.A d %. .` [ 6 s i.a.p.a.s.p.Z.w.x.w.w.M.s.9.! 7 7 f R } #.p.p.u.p.v."
};
