/* XPM */
static char *_692d619bde7499ae35680e4c706ab4aVVYsBoOqKMvi0Ln2[] = {
/* columns rows colors chars-per-pixel */
"64 64 160 2 ",
"   c #2E2C2E",
".  c #34302F",
"X  c #2D2B30",
"o  c #302E33",
"O  c #343234",
"+  c #383536",
"@  c #363439",
"#  c #3A373B",
"$  c #3C393C",
"%  c #413D3E",
"&  c #42413E",
"*  c #3E3B42",
"=  c #413E44",
"-  c #423F49",
";  c #444145",
":  c #494446",
">  c #46434A",
",  c #49454B",
"<  c #4C494D",
"1  c #514C4E",
"2  c #54534F",
"3  c #4B4553",
"4  c #4E4A51",
"5  c #514C54",
"6  c #514B59",
"7  c #545254",
"8  c #56525A",
"9  c #59565A",
"0  c #5C5A5D",
"q  c #605C5D",
"w  c #595661",
"e  c #5F5C60",
"r  c #615F64",
"t  c #646163",
"y  c #696566",
"u  c #6C6867",
"i  c #666469",
"p  c #69666B",
"a  c #6D6A6D",
"s  c #716E6F",
"d  c #6D6B70",
"f  c #716E73",
"g  c #747174",
"h  c #797576",
"j  c #76747A",
"k  c #79767B",
"l  c #7C7A7C",
"z  c #807D7D",
"x  c #82817F",
"c  c #7E7B81",
"v  c #827E83",
"b  c #848284",
"n  c #8C8685",
"m  c #8E8985",
"M  c #878589",
"N  c #89868B",
"B  c #8D8B8C",
"V  c #908886",
"C  c #928E8C",
"Z  c #94918E",
"A  c #8A8790",
"S  c #8E8C91",
"D  c #918E92",
"F  c #969392",
"G  c #9A9593",
"H  c #9C9A96",
"J  c #979599",
"K  c #99969A",
"L  c #9E9C9B",
"P  c #A19D97",
"I  c #A19E9B",
"U  c #A4A19E",
"Y  c #A8A39E",
"T  c #9A97A0",
"R  c #9E9BA1",
"E  c #A19FA1",
"W  c #A5A4A2",
"Q  c #A9A6A4",
"!  c #AAA9A6",
"~  c #A6A4A9",
"^  c #A9A7A9",
"/  c #AEAAA9",
"(  c #AFABA8",
")  c #AFABAA",
"_  c #ACABA9",
"`  c #ADACAA",
"'  c #ACACAA",
"]  c #AEADAB",
"[  c #AEADA9",
"{  c #AFABAC",
"}  c gray68",
"|  c #AEACAD",
" . c #AFAEAC",
".. c #ADACAA",
"X. c #B0ABA6",
"o. c #B0ABA8",
"O. c #B1ABAB",
"+. c #B0ADA8",
"@. c #B0ACA9",
"#. c #B1ACA8",
"$. c #B1AEA9",
"%. c #B1ADAB",
"&. c #B2ADAA",
"*. c #B2AFAA",
"=. c #B3AEAB",
"-. c #B2ADA9",
";. c #B1ADAC",
":. c #B0AFAD",
">. c #B2AEAF",
",. c #B1ADAE",
"<. c #B6AEAC",
"1. c #B0AEAC",
"2. c #B3B0AB",
"3. c #B1B0AE",
"4. c #B1B1AF",
"5. c #B2B1AF",
"6. c #B4B1AC",
"7. c #B5B0AD",
"8. c #B6B2AF",
"9. c #B7B2AF",
"0. c #B6B2AE",
"q. c #B2B1AE",
"w. c #AEABB1",
"e. c #B1AFB0",
"r. c #B1AEB2",
"t. c #B3B2B0",
"y. c #B6B0B0",
"u. c #B4B3B1",
"i. c #B7B3B0",
"p. c #B5B0B2",
"a. c #B5B4B2",
"s. c #B6B5B3",
"d. c #B7B6B4",
"f. c #B5B3B2",
"g. c #BAB2B0",
"h. c #B9B4B1",
"j. c #BAB5B2",
"k. c #B8B4B5",
"l. c #B9B6B4",
"z. c #BAB8B6",
"x. c #B7B5B9",
"c. c #BBB7B8",
"v. c #BDB7BB",
"b. c #B9B6B9",
"n. c #BFBBBC",
"m. c #BCBABB",
"M. c #C2BCBE",
"N. c #C0BFBE",
"B. c #C2C1BF",
"V. c #BEBCC1",
"C. c #C3BDC1",
"Z. c #C5BFC1",
"A. c #C1BFC2",
"S. c #C2BFC8",
"D. c #C7C1C1",
"F. c #C4C2C5",
"G. c #C6C4C9",
"H. c #C9C7CB",
"J. c #CCC9CE",
"K. c #CFCDD0",
/* pixels */
"` _ ` U ! ! W t.[ 4.W u.Q 4.' ' ~ } } ' W ' ! =.I X.Y -.M.G X.X.X.P Y P Y X.Y 2.a.' W ! 4.' ' 4.' ! ' W ' W W ' W W W W W W ! 4.",
"` _ ^ ! 4.! E E 4.' ! Q Q Q ' W ' ^ } ' } W ! 0.! -.-.P Y X.Y X.Y Y P Y Y Y +.X.[ ' 4.! ! U ! 4.' L ! ' W W ' W W L W W U ' a.! ",
"! ' W ` ' ' ! ^ 4.! ! W Q ' u.Q ! W / _ :.U ! =.X.G ! G X.Y M.Y X.Y X.Y Y Y Y Y [ ! U W ! ' ! W ! ! ! L ' ' ! ! W W W ' ! ' ' W ",
"` ! W :.! [ ' :.[ Q Q ' Q 4.u.Q ~ ! _ _ ` ` Q Y Y C Z -.X.P P Y X.Y X.P Y +.U Q W ! W W ! ' W ! ' 4.' L ' ! L ! W L L ! ' ' ' 4.",
" .W Q  .^  .Q Q 4.' Q } W ' Q W { r.{ ! X.X.X.Y P Z Y Y <.<.Y Y Y ! Q P Q ! Q ! Y 4.[ [ ^ ! W ! 4.W ' ! ! L L W W L W W L ' u.! ",
"' W  . .!  .W ' 4.Q ' Q ' Q ! ' r.O.,.W X.I I I G G x M.X.X.M.P X.U Y G Y Y U [ Q ! W W _ :.! W ' ! ' W W W W W W W W W W ' ! W ",
"! W ` ` _ ^ _ 5.' W ' W 4.4.} 4.,.O.O.I Q I I P x x M.x P M.x z U Z Y G Y Y Z ! U Q U U Q ^ ! ^ E ' ' L ! ' W W H W I U 4.' W ' ",
"_ W ^ _ 4._ [ [ ' } 4.W 4.4.! Q O.g.o.I Q <.I V G Y M.z <.M.1 1 C Z I I [ U Z Y Y Q Q E ! W ! ! 4.L ! ! ! W W L L ' ' W W W W W ",
"E ' U 4.' W W 4.4.4.! ! ! 4.' ' { ^ ,.,.^ X.X.C v Y <.o.M.v $ 5 t C Z H ! g.G U X.+.( Y Y Y ` =.' ' ! ! L W W L ! W ' ! ! W W W ",
"W W Q 4.W ' 4.! W ' Q 4.! Q ! ! { <.Q I Y Q Q Y G E <./ M.1 4 : : u Z ! Q 0.G G +.+.[ Y _ Y ` ! W ! ! ' W ! ' W 4.' ' ! ! ' ! ! ",
"W ' 4.' Q ! ! ' ! ' W 4.Q W ! Q ^ / I ^ X.X.Z V X.M.I Z.v = 4 , % 5 C I Y -.U Z ( +.( ( Q Y Y ( ' ' ' ' W ! W W 4.' s.L ' W ' W ",
"' Q W Q 4.' L ! ' ! E ' ! Q } Q <.^ O.^ P H I Q X.<.^ C.q - : 3 : : h C ! X.Y U Y 6.2.6.Q Q +.+.! W W ' W ' ! W ! 4.' ' W ! W ! ",
"W U 4.4.' ! W W ! W W ' ' 4.Q W 5.U / W Q I o.X.Y O.M.G > , - : , % 2 G X.O.X.-.P ( +.X.U U ! X.! ! W ' ! ' W ! ! ' ' W W ' ! ' ",
"! ' s.4.Q W ! ' ! W W W Q } W ! ,.W ^ H Q I Q <.Y <.M.h * , , - : % : x P Q -.Q P Y U Y U U ( Y ' ' W ! ! ! W W 4.! ' H ' W ' 4.",
"4.u.' U ' ' ! ! ' ' L W W U L ! O.I Q I g.<.X.X.X.^ M.8 > > 3 - : = , u C I X.I X.Y Y X.*.Y ( Y W ! W W ! ' W ' ' ! ! W W ! ' ' ",
"W ' 4.4.' U ' ' ' ! F W ' L J L W I v.g.Q Y X.O.O.Y M.8 = , > , - : % y F Q F X.+.Y ! *.6.U U ( ' ' W ! ! ! W ' ! W 4.4.' ! W W ",
"' } 4.' ! 4.Q [ W U ! 4.U Z H ! H W d.v.L r.E k.=.U j.q = , 3 - : = % u I P F ,.<.j.g.X.! ! ! ! ' W ! W ! ! W ! ' ! ' ! ! 4.' U ",
"~ ! ' W ' ^ U [ P [ ! H W ! L Z E s.w.~ K ^ r.r.! ! l.z % - - 3 - : % y B n B.c.F v r y C I [ Q W ' W W ! U W ! ! ! ! ' W ' 4.' ",
"' ' 4.! ! ! t.! 4.[ ! E u.B x ! W a 4 , 1 8 f I z.W z.S $ 5 - - : = % f v l.c.y = # - % $ y _ Q Y +.W W Y U U Q W ! W 4.W ! 4.u.",
"' 4.W 4.4.! U t.U ' I L F B s.E < ; 7 4 3 3 - 5 B d.d.W $ ; : > = 4 - v v.k.2 $ = - - - : + 9 4.Y ! ! Q U L Q Y ' ' U ' W ! ' ' ",
"[ 4.' 4.U ' t.! E ! ' E D A.' 5 1 6 - 6 5 3 1 - , F x.} 5 * , > , = 1 ~ V.e $ = : = = = = * > M [ U +._ H U Q Q ' 4.U 4.! ! 4.! ",
"' 4.' ! a.W ! 4.W ^ E L ~ V.M < - w 8 6 3 1 3 1 = 2 L N.i > > > - - 5 C.l $ > = - = - = * - # i X.P +.+.U U Q _ ' ' W 4.W ' ' ! ",
"' ' u.W W ! ' ! E E x.~ J A.g > 8 6 6 6 6 8 - : , ; 0 J.v * , > - * p b.= * $ - - - - = - = * 7 Q U Y +.Y Y Y Q ! ! ' ! W ' 4.W ",
"!  .' ! ! 4.' a.W ' ' W } x.r < - 6 - 6 5 3 1 < > , ; K x.= < > > * v v O : = - - - * - > $ * > U U I ! -.U U ! ' ' 4.! ! 4.4.L ",
"d. .! ! W E Q t.W E W ^ ~ x.r 4 6 - w 6 3 - 5 - 1 : = p b.9 > > 3 * J 3 ; & ; > * 6 w * * * = @ G *.U ! [ U Q Y [ ! [ ! [ 4.H W ",
"z.W ' W !  .Q 4.E W ! L w.V.p > - w - w - p f - = 5 - 5 x.j * > = 4 S > $ > ; @ e R V.c * * ; * Y ! U Y ! U Y Y [ ! Y P U [ W 4.",
"'  .' ' _ U _ 4.W ' L ' ' H.l > w - 6 - r v.k.I 8 = : = R J @ , = r j * > $ = d w.r.J.S * > @ t  .U Y U Y Y U U U ! [ ! 4.[ [ [ ",
" .5.Q 4. .Q  ._ ^ :.W ~ W A.} , 6 - 6 6 J ,.r.S.F - - = f w.; > * j p # ; & f ! K F.t., * * 4 } [ Y ! U Q Y P U ! [ ! ! 4.U [ [ ",
"5.4.t.:.t.a.6.5.:.! U ' ! ' V.c - 6 6 1 z M.Q I Z.d - > 4 r.7 ; = v q % @ 2 [ / U b.a . + 2 ! U U 2.X.U ! Y P U [ [ U Y [ P [ ! ",
" .d.d.a.:.:.8.d.d.Q W a.' ! 4.m.p - - - 1 Y <.I b.~ > > * ~ w > = v , : $ s j.! F.n < y s *.0.U H 6.Y U ! U U U Y U U ! ! U W W ",
"4.a.} :.a.a.d.` ' [ t.Y ' ' d.B.~ v w - % 2 G E ^ S.d * * S p * : D : % 1 F j.! z.Y G 6.0.X.Y U U *.Y Y U Y U P P I H Y P P U U ",
"' ' d. . .d.:.a.4.[ Y s.! 4.W 4.g.p.<.T G z C I _ V.~ > * j f # 8 v & % 9 I 0.U 6.+.*.Y $.6.Y Y Y ! U Y U Y P H H U Y ! H U U P ",
"W 4.' ! d.z.4.d.4.' ' z.' 4.4.4.4.4.! L 4.N.u.' } V.A.r @ g g * r N $ = b Q Q L =.,.8.Q ! ! ! Y P Y Y U Y Y P U U U H Y U P P W ",
"! ! ' ' ' z.d.d.4.4.4.4.! [ 4.4.d.4.' ! } ! W L ~ } A.S X i M o i k $ 9 C L L a.j.j.=.U Q X.2.! U Q Q Y Y U U Y Y U P P P U U [ ",
"' L ! ' d.N.' ' 4.[ s.' ' [ ! 4.' ' } ! W 4.! ! W } A.E $ r M * r h o q K K _ W j.g.Q Y -.-.=.I U X.Y Y Q Y Y Y U Y U P H Y [ Q ",
"U ! ! ! ' ! L ' d.U ! ' W ! ' ! E } W ' ' } s.W E 4.a.x.4 w D @ r f + f W B :.W 2.O.U ! g.! Y Z U X.U ! Y U Y Y Y P P ! Y U [ 6.",
"' 4.! ! ' ! ' d.4.4.U ! ' W ' U } ' W ' ' W ! W } ' } V.7 w J * 0 p O g W E _ _ <.! U =.g.Q I P U Y U Q Y U X.I I P U U P ! $.[ ",
"4.' L W ! ' a.' [ ' ! W 4.[ L [ ' L 4.W W 4.L ' u.W r.x.r > R * 2 u O z W :. .U X.X.Y =.<.Q Q I U ! Y Q Q Q ^ Y Y I I U Y Y ! +.",
"' ' ' ' ' ! 4.4.z.L a.' L [ W ' W ' W W ' W W W ~ ' ~ F.l , } , e g < B [ L 2._ I Q ! <.X.Q I Q Y Q Q Q W ^ Q I U Q Q I Q +.2.! ",
"! ' ! ! 4.! W 4.' z.4.H ' ' [ L ' ! L W 4.E W W L u.~ ~ b c A b k x a s U L 6.Q P Q -.-.Y X.Y I Q Q [ Q Y ^ Q I ~ W W Q a. .+.6.",
"' ! W W ! ' ! W ' d.' L 4.' W U E ' L ' W 4.H ' 4.W L J @ * * * * # $   J H ! ! ! P  .d.Q Y I Q L U [ _ 4.Q _ ' Q I ` W ` _ _ _ ",
"U ' U ! W ! W d.4.' 4.' W d.W ' ' W L ' J W W W ~ K ~ ' p f i d t d p x W J s.4.U Q U s.o.I I Q E ^ :. . .W ^ _ ! / ! ' W E ' Q ",
"' ' ' 4.L ! ' W 4.' ' ' W W W ' ' ' 4.J W L W 4.~ ! } s.x.w R j p J 0 L ' ! 4.4.Y Q ( +.Q X.Y I W Q ' _ [ W ! ' ` ` ! a.W W ` _ ",
"W ' 4.! ' 4.' U L W ' W ' ' W [ ! ' W E L L W 4.L E ~ S.v X R ; & L $ D } ' E } [ ( [ Y I W I W W U W _ ' ' ' ! ,.W ! 5._ a.! 5.",
"W W ' ' 4.' ' ' W ' W ' z.W ' ' ' W L W L 4.4.L ! ' ~ J.i < ~ > 7 E * g } } } } 2.u.,.I W Q W X.W U Q 4.'  .' ! ! ! ! !  . .Q  .",
"' W ! 4.W W 4.' s.W 4.4.W d.L ' ' W d.H 4.z.x W 4.~ r.r.@ g R * > R 4 , S x.u.4.H l U Q I <.~ Q ' ! ' 4.! ! '  .W ! W W ' E Q  .",
"! ' ! W ' ' ! 4.' W ' ' W ' ' ' ' W ' W N.Z + H 4.} S.e X D v - * T N * 7 L x.N.y . t Y ^ O.W <.4.Q W ' W ! ' 4.W Q W ! Q E ' _ ",
"4.! ' ' 4.L ! 4.W ' 4.' 4.' W ' ' ' ' 4.N.0 & e ' E r > > r.p - * k H.9 $ 7 A s & : % V O.! ,.^ ' U W 4.' 4.4.' 4.E [ 4.Q  .' Q ",
"' ! 4.! ! ! W 4.! ! 4.! ! W a.' t.E a. .G.a ; 4 4 < > > i r.6 - = e V.w.7 $ * * & , # D 4.' 4.! ! ' ! 4.! 4.4.4.W ' ' ! W } ' W ",
"' ' W ' 4.W 4.' H 4.4.4.W ' W 4. .^ E 4.t.J * , 4 4 > = T ~ * 6 > - ^ G.w.0 > & & # r W } u.' ! ! ! Q ' Q ! ' ' ' ! W ! Q 4.' W ",
"s.' ' ! ' ! ' 4.! ! s.s.! W W ' ' _ d.d.W b.M t < - p c S.A > ; 4 = ~ x.b.m.J j s s M W s.4.[ W ! ' Q Q ' Q Q ' 4.} ' ' W ! W W ",
"[ ' ' ! W ' 4.4.! L 4.' ! U s.a.' ^ :.L } w.m.t.~ ~ w.x.S.f > > , = } b.} ~ x.t.f.E W ' d.u.z.W W Q ! W } Q ' } Q ' Q ' W ! ' ' ",
"! 4.! ' ! W 4.U U d.' W U W ' 4. ._ ' E a.! :.} x.V.r.r.S.M * 5 < : W 4.4.W ! 4.' L W W a.z.[ W ! ! Q W 4.! ' 4.W ' Q ' ' d.! W ",
"d.[ ! ' W ! ! W 4.z.Q ' W ! 4.U 5.^ _ U ^ b.d.d.m.r.x.~ r.J * 5 ; < W m.s.' } w.L W ' W N.a.W [ ' ' ' W ' ! ! ! ' 4.' ! W ' U E ",
"z.W ! W W d.' 4.u.' Q 4.' ' z.W 2._ ' ' A.a.U z.r.4.x.E w.' * > & 0 s.} 4.d.[ E ! Q ! 4.[ ! [ ! ! ' ! ' W } ' Q ' ' ! ! W ! ! 4.",
"4.' 4.4.! 4.' ! Q u.s.' ! ' ' ! 5.:.' a.d.4.4.4.a.x.! W w.G.e & & L W m.d.[ ' ! 4.E ' ' [ 4.U [ W ' ! } ! 4.} Q ! ' W ! 4.4.' 4.",
"d.a.! ' ' ' _ ' 4.4.4.' ' 4.W '  .z.[ z.z.4.t.t.:.` ^ U :.N.B   l ' z.4.' 4.Y 4.Q [ a.[ [ [ ! ! ' ! W ! Q 4.! ' ! W 4.W a.! ! ! ",
"' !  .! ' ' U 5.' Q Q ' Q 4.W 4.+.d.6.z.4.+.z.z._ ' ' ' } z.^ x z.a.[ [ ' 4.[ ! s.[ 6.2.[ [ ! 2.' W ! 4.E W 4.! W ' ! ! 4.E ' ! ",
"' Q ' ^ :.W U ' Q ' ' Q ! z.' 4.5.d.5.d. .4.d.4._ :.d.d.:.d.d.d.a.' [ z.2.! ! [ +.4.s.4.[ [ ! [ W ' ! 4.W U 4.! W ' W ' ' E W ! ",
"' :.W _ d.Q ' W ' ' u.L u.} u.! 5. . . .[  .' Q  .5.a.:.:.a.5. .4.d.4.t.4.[ ! 6.Y [ s.4.[ [ ! ! ! 4.! ' ' ! ' W ! ! ' ! ! W W ' ",
"' 5.W _ d. .:.W  .' ! 4.! 4.W 4._  .:._ `  ._  .:.' ' W d.4.5.[ d.t.' ' 4.4.4.4.' [ ' d.d.' ' 4.4.W ' ' W ! 4.L ! W ' W ! ! 4.' ",
"_  .' Q ' 4._ ! 4._ 4._ 4.W ' '  .5.4._ a.5._  .5.' ` ' z.5.5.5.4.! ' d.6.' t.[ [ 4.4.5.' ! ' ' 4.Q ' U U ! ! Q W ! W U ! W u.! ",
"' ! 4.U _ [ Q _  . .4._ ' _ d.' :. .:. .d.:.` _ 5. .5.d.d.t.5.5.z.' [ ' 4.4.t.! Q 4.4.4.! ! ' ! ' ' W L ! W W ' W W E ! Q E 4.' ",
"' W ! L  .W _ _  ._ ! 4.' _ ' 4.Q ^ 5.5.:.Q 5.` `  .' a.4.z.t.5.L  .' W 4.! ! [ z.' E Q ' ' 4.' ' ' W W ' U ' W W L U ' W W ^ 4."
};
