/* XPM */
static char *dc2ec6c9f3e64b87b1613f0258e087e7NHcfDGah2ouqCMiY[] = {
/* columns rows colors chars-per-pixel */
"64 64 256 2 ",
"   c #543200",
".  c #663500",
"X  c #684500",
"o  c #754D00",
"O  c #7A4700",
"+  c #6B5700",
"@  c #735300",
"#  c #7C5300",
"$  c #795A00",
"%  c #6B5500",
"&  c #845400",
"*  c #845C00",
"=  c #8B5B00",
"-  c #8B5500",
";  c #955E00",
":  c #834C00",
">  c #846300",
",  c #8B6300",
"<  c #8C6B00",
"1  c #856C00",
"2  c #936200",
"3  c #9A6400",
"4  c #936C00",
"5  c #9C6C01",
"6  c #9D660C",
"7  c #8D7600",
"8  c #947200",
"9  c #9C7301",
"0  c #9C7B01",
"q  c #957A00",
"w  c #9B7812",
"e  c #A46B00",
"r  c #A56906",
"t  c #A47501",
"y  c #A37B00",
"u  c #AB7C00",
"i  c #A77609",
"p  c #B27803",
"a  c #AB7B14",
"s  c #B17815",
"d  c #9B8401",
"f  c #A38300",
"g  c #AC8301",
"h  c #A48B01",
"j  c #AC8C01",
"k  c #AA830B",
"l  c #B28500",
"z  c #B38C01",
"x  c #BA8D02",
"c  c #B98909",
"v  c #AA9200",
"b  c #A79703",
"n  c #B39301",
"m  c #BC9401",
"M  c #BC9C02",
"N  c #B89907",
"B  c #AD8D17",
"V  c #B78617",
"C  c #B89816",
"Z  c #BBA200",
"A  c #BDA705",
"S  c #BBA615",
"D  c #BEB314",
"F  c #BB9424",
"G  c #BEAD29",
"H  c #C38C04",
"J  c #C49401",
"K  c #C49C01",
"L  c #CB9C02",
"P  c #C69A0B",
"I  c #D29D05",
"U  c #C79B16",
"Y  c #C69112",
"T  c #C4A301",
"R  c #CCA300",
"E  c #C4AB01",
"W  c #CBAA03",
"Q  c #CBA50C",
"!  c #CCAA0B",
"~  c #C5A90C",
"^  c #D3A302",
"/  c #D3AB03",
"(  c #D2A60D",
")  c #D4AC0B",
"_  c #DAAB08",
"`  c #CDB40C",
"'  c #CAB306",
"]  c #D2B202",
"[  c #D3B40C",
"{  c #DCB30D",
"}  c #D5BA0E",
"|  c #DBB908",
" . c #C5A414",
".. c #C4AC13",
"X. c #CCAB14",
"o. c #CBA619",
"O. c #D3AC14",
"+. c #D5A818",
"@. c #CBB21B",
"#. c #C9B917",
"$. c #D4B314",
"%. c #DBB414",
"&. c #D4BB13",
"*. c #DBBA14",
"=. c #D3B31B",
"-. c #DDB51C",
";. c #D4BC1B",
":. c #DCBB1C",
">. c #E3B90A",
",. c #E4BC14",
"<. c #E3BC1C",
"1. c #E7B718",
"2. c #E7B310",
"3. c #C9992D",
"4. c #C7A728",
"5. c #D7AB24",
"6. c #CBB727",
"7. c #D4BA24",
"8. c #DCBB23",
"9. c #DDB52A",
"0. c #D3BC2B",
"q. c #D7B526",
"w. c #D8B833",
"e. c #D0B036",
"r. c #E3BD23",
"t. c #E5B927",
"y. c #E6B936",
"u. c #DBC309",
"i. c #DCC214",
"p. c #D4C21C",
"a. c #DBC21B",
"s. c #D9C817",
"d. c #D8D01C",
"f. c #E4C50C",
"g. c #E3C314",
"h. c #E4CB14",
"j. c #E3C41C",
"k. c #EBC41C",
"l. c #E3CA1C",
"z. c #ECCB1B",
"x. c #EBC713",
"c. c #F3CD1D",
"v. c #F5C71A",
"b. c #ECD31C",
"n. c #E9D619",
"m. c #F2D31D",
"M. c #F6D91C",
"N. c #F7E31D",
"B. c #EAE01E",
"V. c #CBC327",
"C. c #D2C223",
"Z. c #DDC322",
"A. c #DDCC23",
"S. c #DCC32B",
"D. c #DCCC2B",
"F. c #D4C929",
"G. c #DCD327",
"H. c #DAC736",
"J. c #DCD533",
"K. c #E2C323",
"L. c #EBC423",
"P. c #E4CB23",
"I. c #ECCC24",
"U. c #E4C32B",
"Y. c #E4CB2C",
"T. c #ECCB2B",
"R. c #EBC42B",
"E. c #F4CD24",
"W. c #F5C928",
"Q. c #E4D322",
"!. c #EBD424",
"~. c #ECDB24",
"^. c #E4D52B",
"/. c #ECD42C",
"(. c #ECDA2C",
"). c #E5DA28",
"_. c #F4D424",
"`. c #FCD425",
"'. c #F3DB23",
"]. c #FDDC25",
"[. c #F3D42B",
"{. c #FBD52B",
"}. c #F3DB2C",
"|. c #FCDC2B",
" X c #E6CC32",
".X c #EDCC33",
"XX c #E7C736",
"oX c #F3CD33",
"OX c #F5CA37",
"+X c #E4D333",
"@X c #ECD433",
"#X c #E4DA34",
"$X c #EDDB35",
"%X c #EDD43B",
"&X c #E7D83A",
"*X c #F3D434",
"=X c #FCD533",
"-X c #F4DC34",
";X c #FCDC33",
":X c #F3D53B",
">X c #F3DD3C",
",X c #FEDD3B",
"<X c #FDD33E",
"1X c #ECE22D",
"2X c #EBE324",
"3X c #F5E424",
"4X c #FCE225",
"5X c #F4E42C",
"6X c #FDE32C",
"7X c #FEEB2D",
"8X c #F8EA28",
"9X c #FCF22C",
"0X c #EDE233",
"qX c #EDE33A",
"wX c #E8E536",
"eX c #F4E433",
"rX c #FDE434",
"tX c #F5ED34",
"yX c #FEEB34",
"uX c #F4E43C",
"iX c #FDE43C",
"pX c #FEEB3C",
"aX c #F4EB3A",
"sX c #FEF234",
"dX c #FEF33C",
"fX c #FEFA3C",
"gX c #FAF638",
"hX c #DAB143",
"jX c #E0B940",
"kX c #D8CA45",
"lX c #E7C745",
"zX c #F6CD46",
"xX c #EAD844",
"cX c #F3DA43",
"vX c #FEDC43",
"bX c #F8D848",
"nX c #F2DA52",
"mX c #EEE743",
"MX c #F4E343",
"NX c #FDE443",
"BX c #F5EB44",
"VX c #FEEB43",
"CX c #FEE44B",
"ZX c #FDED4B",
"AX c #F5E74C",
"SX c #FEF343",
"DX c #FFFA44",
"FX c #FEF44B",
"GX c #FFFA4B",
"HX c #F4F346",
"JX c #FFEB51",
"KX c #FDE857",
"LX c #FFF353",
"PX c #FFFD53",
"IX c #FFF55B",
"UX c #FFF362",
/* pixels */
"=.*XiXiXVXVXVXGXJXxX#.J.=.Q ,.b.6X~.[.vXW.%.n A.8XgXn.h.pXVX6X[.3.e _ ].].`.vXoX:XbXe.g r.|.7X9XyXDXgXfXDXHXmXV.6.b @XCXu s r 3.",
"T.,XSXpXNXcXpXVXLXLXqXV.@.Y.rXrX5X(.,XNXt.L m ^.fX2X'.rXpXNXrX*Xc Y O.{ `.1.U , h q.lX4 R c.`.6XpXyXgXfXDXPXLXxXV.KXJXX.e e s - ",
"_.rXrXI. .N ! /.+Xa.#.V.H.&X/.I.l.&.7.O._ L ^ {.[.` [ Y.>XMX>X:Xt 2 * 8 p P H H 5.X..XU.*.| { <.j.;XrXuX0X^.(.$XxXAXMX~ r ; s hX",
"z.c._.j.N $ T ! :.a.` #.V.G.Q.I.P.~ v f ( 1.m._.!.P.a.&.C.6.S...4 5 4.w.9.H r r o.oX:X;X|.`.{ g z E.P.;.Z v } p.H.H.8.8.y.3.. 6 ",
"L L ( r.xXXX:XT.<.I.P.aXgXgXtX3X!.(.(.pXdX6X4X8XeX$X!.Q.J.+X&XS 7 6.CXCX9.t 3 Y # N T.}.6XrXeXd &.rXuX-X} *.;X) P .Xj.<.9.jX& & ",
"l ( %.NXXX1 .X/.j.P.eXeX1X8X'.n.'.sXSXyX5X3X2Xd.$XeXsXDXFXGXZXAXKXUXNX%XC k = F w.4 M l.l.b.0XGXGXpXeXaXrXpXiX,.*.k.*.oXu u e.w ",
"U OXR.,X7.v -XiXuXp.;.$XyX}.'.4X9X7XyXrX~.P.^.BXBXGXZXVXZXaX#XHXLXMX-XY.4.0 w @ cXCXn n -XdXGXHXwX1XtXtXsX6Xc.E.x.[ K -.f 8 jXC ",
"q.@.Y.MXU.Z j.rXSX0X` A.i.b.rXyX8X8X5Xj.a.+X%XxXD.&X:XY.S.C.HXFXNXvX=.U.V # e.> S.uXqXD.FXSXSX1X1XtX1X8X5X].b.g.] / %.%X%Xw.q.0.",
"V.nXJX;.r.m / |.yXDXA.b ` -X/.rX6Xb.:.$.R.XXoXoXQ m 8.* <  XMXAXXX+.5.c = = y.~ ~ $XMXGXpXaX@XP.rX}.-XE.j.*.:././.pXpXpXcX1 =. X",
"H.J.&Xd K.iXW h.7XsXBXb #.A.P.i.] *.8 n <X,XL { +.x r.! n 0. X X8 o 5.z k k o.=.M %XuXuX).a.*.K.L.L.P m X.M K.ZXZXpXeXVXU.j oX[.",
"nX4...p.iXpXb.] 4XyXFX+XS #X^.i.*.W z T.iX_.>.^ ( Y r.iXCXA X.@.6.U X.m 8.X.h N ..Y.D.A.Q.Q.T.<.r.P 2 t g 9.*XeXrXNX%X..-.M v.|.",
"zXj N $XdXsXyXE f.rXVXMXmXAXSXrX*.! ;XiX6Xm.M.2.2 Y NXdXVXn j 8.:XNXNXiX-X X0.V. X/.-XpXiX-X*XT.R.5 s 5 = 4 ! P.I.,Xf o T.J x.|.",
"2 o C +XfXfXDXd.' }.eXSXPXdX~.b.] ;X6X6X'.m.`._ . 4.NXSX~.i.*XiXVXyXyXeX/. XxX6.p.(.@X/.$X$XiXZXKX4 : O 5.5 , m r.W Q <.NX%._ v.",
"9.y.C 6.dXsXgXdXM i.VXGXtX'.f.| 4XrXyX6Xh.|.`.I = jXMX1XQ.[.iX;XyX7X4X!.Z.xXxX+ A ;.7.H.MXGXGXFXKX4.; F zXoXC m *Xz.I.VX,X{.I 1.",
"0XGX4.S eX7XyXyX&.aXGXpX_.f.| M.9X3X|.z.z.|.v._ t OX@XP.j.M j.*X$X(.l.<.! O. .z R.;.6.xXBXHXfXFXw.a = 5.%X<X XS.*Xj./.p.W W.I 1.",
"fXGXe.+ E._.|.}.uXFXpX_.x.| x.rX8XM.x./ E.,XW.I J r.I.-X*X! X.=.=.X.:.=X;X,X*X=.;.S.4.6.J.wX!./.> 9 5.m W.VXNX..7.` P.i.[ W._ W.",
"gXDXH.@ P W.T.+XmXBX!.k.>./ eX0XQ.s.] W j.oX1.H J W.-X-XW.! c O , t P =XrXyXpXSXmXJ.G b 0.C.i.g.:.T.CXW g.rXNX0.N f ) ;XT.) %.=X",
"gXGXH.d ( %.6.H.J.p.$.{ m [ G.A.).8X6X]./.!.t.p ^ ;X,XoX:.g c 3.w.* P oX|.7X7XpXHXIXnXq $ ..7.! |.SXpXl.| |.ZXS.C , K ;XL.) ^ W.",
"gXeX#XKXZX>XJ.F.J.&X:X@XT.(.A.1XsX9X4X9XsXsXpXg.6XpX9.5.N @ 5.OXJXN g +.k.c.].yXFXJXIXd 7 @.1 0 ;XsXfX5XE _.>XK.{.L g.rXL.) ^ `.",
"5X}.BXPX>XqXHXmXAXCXMXLXAXMX0XaX4XN.N.8XyX5X'.5X7XpX2 o.CXC ! *XiX7.,  .T } k.{.=XNX:X$.ZXbX< B iXyXfX5XZ j.;X,XE.x.c.;XL.R R |.",
"aXpXHXmXaXBXHXBXiX,X$XF.H.F.S.T.c.n.n._.6XrXQ.eXiX[.K +.CXFXP.Z.cXC S.NX@XT m <..XK.k.I.VXIX3.$ +XVX0XeX+XCXCXE.M.f._.pXW.R ^ M.",
"pXSXGX0XMXZXmX#.j.|.aXaXD + C +.W $.$.a.j.j./.aX-X8.J +.$XpXpXa.0.+ ..uX(./.K z m X.) T.CXIXe.  F.+XxXJXKXKX XL.`.>._.yXc.W / |.",
"dXdXrX-XXXw.XX1 >.|.sXdXAXxXF = 5 5 e g m -.*XT.f f R.J I.6XSXcXS 8 8.P.I.!.t.OX( y P L.bXlXlX0 S xXKXB B 4.o.Z.W.>.m.rX`.L ! <X",
"sXpXl.k.t o P z _ c.;XSXHXUXKXB = 6 i 3 u oXvX,X8 M CX1.| |.yXVXq.P *X-XrXI.=XzXy.2 t r.o.@ w.n 6.AXlX* 8 j 7.Z.*./ } 6X`.J r.IX",
"|.;X^ L %.<.P t H ( E.iXVXVXIXnX- s ; r 5.OX;X6Xb.5XdXpX^ v.pXrXT.}.yX6X|.g.;X=Xy.; 3 y.R.v 0 6.+X.Xo.9 ,XSXpXyXrX} E ;Xc.| ,XCX",
"=X>.L 2.|.ZX9.U y.O.Q W.iXpX%XXX5 O s s - 8.E.m.n.gXfXpX,._ `.}.rXrX9X4Xl.rX|.W.+.= 9.vXZXcXS.CXvXU.4 r.VX7X4X8XrXrX!.}.c.v.iX,X",
"[ R _.z.aXLXg u JXNXr.M I.} , zXk 9 O 3.a 2 $.i.d.dXfXdX;XL !.6X7XyX8Xn.h.6X`.1.x l R.SXuXMXFXNX,Xx g NX].n.N.7X7X|.!.Y.I.`.|.c.",
") iXK.d.dXFXy o.ZXSXZX<.K R J zX:XC X w * 5 K M :.VXaXpXpX| eXyXyXN.h.| 5XrX|.1.l P >XVXaXPXVXT.+.+.t.U.g.h.h.h.m._.8.#.R.j.,._ ",
"VXVX;.s.tX1XZ.oXeXdXpXZXQ u ( W.vXAXd + 0 zX:Xh g bX>XiXeXyX8X4XM.f.] } rX|.v.I x oX,X-XGXVX;Xz e 3 3 , g z z =.%.;XU.q.-., ( P ",
"VXVX#...d.).' &.eX$XSXb 5 U l 1.@X%XG 1 4.nXZX`   q.CXY.).eX~.'.u.] Z $.j.W.1.H W ;X,X>XFXZXr.u e V k c 5.p t < 1.T 0 5..Xl u y.",
"yXrXM @.tX1X7Xg.a.;.A.h n vXR.P./.>XlX0 h +XuX$Xu +.oXY.MX$Xa.W ] !.iXNXK.~ x u $.(.eXZXiX>Xc ; : &  .*X<X1.P z -.) : c R.t.& y.",
"c.*.t .XSXyX7XyX>XC. .XXvX*XZXSXSXiXZXAXF.6.F.#X8.m O.%X8. .X.%.E.rX/.@X@XY.n j ` s.D.qX%XS.c : V g ! ;XW.1.x =.R.,XOXu W.T.Q j ",
"t.x ( ,X6X}.iX/.@XcX6.j R.;XrXpXyXfXSXSXGXHXJ.V.#.b .XKXt t t o.$.}.>XVXVXMXZXFXVXJ.D.Y...` -.oXvXNX_.6Xc._ L r.pXVX;Xa.pX6XpXyX",
"y.U P $.}.*X1.o n H.lX* J `.{.|.7XgXsXfXDXgXPXmX#.cXIXN p e i = K.pXVXpXpXSXDXdXDXPXGXuXp./.VXpX;X_.].6Xg.^ J T.sXpX~.pXdX6X3X4X",
"p r = 8 y ! P J @X@.4.4.J L ) E.{.4X6X3XfXpXSXSXGXIXJXg - - F e.*X6XyXpXsXsX9XfXfXDXqX0XaXSXyX7X6X'.yXrX1.x K {.eX5XeXiXpXpX}.z.",
"; e 4.y.U.z Q W.vXU., 5 +.I { P W ,.`.|.}.~.).pXLXiX=X5.9 a . 9 oXc.`.;X'.3XN.N.B.Q.8XpXsXsX7X3Xh.5XyX{.-.z 1.}.b.b.rXrX*Xj.} ' ",
"9 ..XXNXVX[.{ W.W.OX& . 9.vXCX,X%.x L L.{.j.uXFXyX6X,.<.8 3.* & U I ( _ ,.I._.}.b.'.4X7X7X7X4Xf.h.sX4XE.P l <.T.s.Q./.}.z.k.&.#.",
"JXJX:.T.T.I.[.{.;X<X3.o f cXNXMXJXvXX.t K K.MXVX'.h.>.K., 7 hXi p ( %.^ K n z W i.rX3X4X6X_.I.;.s.!.E.1.p -.NXrX1Xn.} { _ ] @XZX",
"GXGX&.j O.*XpXrXc.L.4.# h ^.G.D.F.+X@X;.h D.$X).i.} T $.f 8 XXn  .XX%X X Xw.S d S.@Xl.i.$.@.j q 0.cXt.J L ,XrXsX7XtX~.T g K uXVX",
"ZX+X;.v .XVXpX'.f./ 0 g @.#X).1X+XD.C.C.#.V.p.D A ` ;.*X%X8.8.$.X.6.H.AXZXAXnX6.6.#.&.;...f + F nXU o.t.OX{.6X].8X5XyXg.m oXaXSX",
"y.4.Z.^.pX4XrXx.] A p.iXSXpXrX0X2XwXwXmXwX0XeXQ.-XpXSXNXbX2 $.K.p.#XHXLXaXwXJ.J.&XBXVXVXZX&XH.UXe.9 5 4 z O.oXz.'.'.n.8XrX-XuXMX",
"3 = R./.4X7Xh.| !.5XgXsXrX'.}.~.tXgXPXHXGXaXeXiXpXdXeXZXXXz T.-XC.J.&X#X#X#XmXPXLXZX0X>XD.+XIXXX9 9 9 B 7 0 z O.i.u.7XsX).}.@XD.",
"1.m Z./.4Xn.u.M.7XgXsX5X5X$XeXSXfXfXgXgXtX5XpXrXrXNX%X@.9.P I.;X$X@.6.F.>XLXJXJX..8 .XC. XxX&X6.O * # 4.R.}.<.j E rXrX~.eXZ...D ",
"*X;XK.P.z.] !.7X3X5X~.Q.).uXSXDXgXpX5X~.5X6X[.{.!.-Xd + R.m j.pX*XN B lXKXS.j %XN 9 ! ,XNXJXbXXXi , 4 . *XeXVXK./.pX2Xb.j.M b #.",
"FXiXK.:.W } ~.(.).l.P.-XwXHXaX1X5XP.l.Q.6Xl.z.{ %.E E *.CXO._ =X4 o F hXAXb @ q.U g z |.rXVXVXZXnXf B > n ;Xa.>XeXA.j.,.j.j.^.VX",
"0XBX^.Z j [ s.u.' T $.%XwXG.G.s.&.:.} l.j.j.O.K.T.k._.yXvXoX^ 1.8.w.B F 6.xX,X:XP U K >.{.6XpXSXFXJXkX .j #.Y.Q.^.@X}.;XVX;X(.aX",
"eX^.&.&.K.}.1X7XM._.!.p.V.V.(.eXT.Z A !.pX[ X o.OX1._.*.W [.^ 2.-XUXG d D uXpX-Xm 5.L J / {.6XyXDXsXLX>XN M P.5XuXeX|.yX|.W i.(.",
"=.` P.pXpXyXsX9X7X6X}.).aXDXVXiX-X(.pXrXrX[ X.zX=.O.L.k.[ E.I W.SXFXkX$ #.dXeX}.XX9.oXW.[ / b.4X3XgXdXHXA.-XVXNX>X/.;X`.|.} ! ` ",
"4 y *.pX7X7XsX8X2X2X1XDXDXSXeX!.5XfXyX6X{.g.rXFXS.t $.[.E.{ _ }.fXLXkXX @.uXeXGXbX@ /.SXrX*.T _.M.N.8X8XtXSXW.Y U 3.o.8.t.r.z # ",
"e.9 ! |.6X7XM.8XG.aXfXfXyXb.n.rXgXyXyX].x.j.sXFXKXX m ,Xk._ T ~.sXPXw.X  XPXFXGX.Xy pXyXdXpXi.m m.m.B.8X2XVXU 3 e = 4 0 M f P U ",
"JXn j R.c.c.z.i.BXFXDXyXm.m.rXyXyX].f.>.2.I.SXdXZXh &.;XW.L / }.pXpX%XxXFXGXDXdX[.[.fXfXsXsXfXs.j Y.gX9XgX[.p e a e.%.rX}.f Q zX",
"mXC.< -._ K ' -XLXPXaXb.b.6X7XsX6Xx.L _ J -.pXSXVXp.[.pXx.L K ,XVX(.uXPXGXSX1X}.z.| 5XgXsXgXfXdX;.MXSX7X7X%.& 3 @ q ;XyXpX(.! *X",
"xXS 7.O.g 7 p.DXFXtXN.f.3X7X].6X`.x.v._ ; P -XfX5X!.'.6X`.^ R ;XeXaXDXSXDX5XiXrX=X,.b.8X3X8XtXeXpX|.yXrXc.1.u i 4.  M yXeXVX.XS.",
"kX+ ~ NXcXMXPXGXyX3XN.M.7X7X6Xm.,.| M.v.H o.-XdXyX'.'.;X{.I ^ ;XdXaXGXVX(.iX-XO.-.[.s.~.3XM.5X5XyXsX6Xc.W.x 5.4 S H.n i.rXpXCXC.",
"F 7 S.>XAXZXgXsXM.6Xf.n.9X'._.*.0 ` `.x.( m '.yXrXT.XX9.H I %.{.dXDXrX6X*Xr.R.2 1.,XiX}.4XN._.7X6X4X`.W.z 4 t.9 > CXNXE z.pXpXuX",
"e.S *XuX>XFXfX7X6XM.J n.yX_.| j W T.rXg.( J h.M.z.:.l 3 s p -.iXyXsX_.E.z o P z ) T.,X,Xm.m.|.rX'.[.k.z f W.vX+.f T.rX'.E _.SXdX",
"[.|.aX0XpXfX4X].E.L n rXrXj.v p.pXb.6Xf.E.|.4X6X6X%.y = ; e P ,X6X].^ ^ { <.J 0 n ! E.6X].f.pX>XN +.z n rXrX;X=XP | |.4Xf.f.sX8X",
"M.yX).aXfX9X4Xc.T T pX;X=XM ;.SXrX_.] _.pXpX7X6X6XiXlX9 - V U E.`.,.L %.,XZX9.o.R.[ W x.6X].*X.Xy , g vXpX~.iX;X,.^ M.7Xx.} '.N.",
"9X9X~.sXsX7Xm.E A SX-X-X .h VXpX;X^ R ;X|.M.'.6X6X,Xw.0 V = W.,._ _ W.L.iXLXy g ZXpXi.Z [.%., <Xk 9 v $XdX~.pX;X1.I x.7X'.A h.7X",
"N.3X'.yXsX`.E W dXdXeX$X0 +.ZXT.5.+.t.<.1.k.j.P.!.*Xw.$ F * <.) %.R.O.T.iXGXf o.SXsXSXa.! P P zXzXC q F.$XeXVX;X{.2.^ 7XsXu.].7X",
"6Xh.E.;X`.| ` NX5XeXaX~ q oXvXc r 6 = t u l N q.:.-Xw.$ 5.j n Q ,X .j 0.uX$Xa./.tXdXBXJX9.l t.OXvXCXh h D.D.MXuXL.1.T |.5X3XyX6X",
"g.W R k.g.%.%XK.l.~.iX` Q.R.5.p r V k c +.l 5 4 <.P 0 0 8.-.m XXvX6.0 6.^.~.] %.).2XJXv 4 +.l %.T.:X6.7 6.C.%X-Xl <.j.l.eXyX}._.",
"W rXeX}.l.`  .g %.}./.pX}.K.Y ; # $  .W.=X1.Y c 1.( # y O.k.oXvX:XX., @.3X3X6Xa.s.p. Xz z vXT.Y.>X%XH.d b &XMX@Xl { P.p.uX@Xa.&.",
"/.-X5X~.).P.j f O.l.P.1X!.t.Y . a a  .>X{.2.H 9.y.<XlXt W.iXvXoXU.f 4 R.fX9XrXpXeX;. .R.<X{.VXVXFXFXJXmX6.;.F.:X-.L ` &X7.S ..E "
};
